<?xml version="1.0" encoding="utf-8" standalone="no"?>
<!DOCTYPE svg PUBLIC "-//W3C//DTD SVG 1.1//EN"
  "http://www.w3.org/Graphics/SVG/1.1/DTD/svg11.dtd">
<!-- Created with matplotlib (https://matplotlib.org/) -->
<svg height="324pt" version="1.1" viewBox="0 0 684 324" width="684pt" xmlns="http://www.w3.org/2000/svg" xmlns:xlink="http://www.w3.org/1999/xlink">
 <metadata>
  <rdf:RDF xmlns:cc="http://creativecommons.org/ns#" xmlns:dc="http://purl.org/dc/elements/1.1/" xmlns:rdf="http://www.w3.org/1999/02/22-rdf-syntax-ns#">
   <cc:Work>
    <dc:type rdf:resource="http://purl.org/dc/dcmitype/StillImage"/>
    <dc:date>2022-07-17T21:53:59.858655</dc:date>
    <dc:format>image/svg+xml</dc:format>
    <dc:creator>
     <cc:Agent>
      <dc:title>Matplotlib v3.3.4, https://matplotlib.org/</dc:title>
     </cc:Agent>
    </dc:creator>
   </cc:Work>
  </rdf:RDF>
 </metadata>
 <defs>
  <style type="text/css">*{stroke-linecap:butt;stroke-linejoin:round;}</style>
 </defs>
 <g id="figure_1">
  <g id="patch_1">
   <path d="M 0 324 
L 684 324 
L 684 0 
L 0 0 
z
" style="fill:#ffffff;"/>
  </g>
  <g id="axes_1">
   <g id="patch_2">
    <path d="M 85.5 236.52 
L 315.978261 236.52 
L 315.978261 38.88 
L 85.5 38.88 
z
" style="fill:#ffffff;"/>
   </g>
   <g id="matplotlib.axis_1">
    <g id="xtick_1">
     <g id="line2d_1">
      <path clip-path="url(#p7523345f81)" d="M 85.5 236.52 
L 85.5 38.88 
" style="fill:none;stroke:#b0b0b0;stroke-linecap:square;stroke-width:0.8;"/>
     </g>
     <g id="line2d_2">
      <defs>
       <path d="M 0 0 
L 0 3.5 
" id="mb2c18d8abb" style="stroke:#000000;stroke-width:0.8;"/>
      </defs>
      <g>
       <use style="stroke:#000000;stroke-width:0.8;" x="85.5" xlink:href="#mb2c18d8abb" y="236.52"/>
      </g>
     </g>
     <g id="text_1">
      <!-- $\mathdefault{0.02}$ -->
      <g transform="translate(76.644293 250.438498)scale(0.1 -0.1)">
       <defs>
        <path d="M 42 31.84375 
C 42 37.96875 41.90625 48.421875 37.703125 56.453125 
C 34 63.484375 28.09375 66 22.90625 66 
C 18.09375 66 12 63.78125 8.203125 56.5625 
C 4.203125 49.015625 3.796875 39.671875 3.796875 31.84375 
C 3.796875 26.109375 3.90625 17.375 7 9.734375 
C 11.296875 -0.609375 19 -2 22.90625 -2 
C 27.5 -2 34.5 -0.109375 38.59375 9.4375 
C 41.59375 16.375 42 24.5 42 31.84375 
z
M 22.90625 -0.40625 
C 16.5 -0.40625 12.703125 5.125 11.296875 12.75 
C 10.203125 18.6875 10.203125 27.328125 10.203125 32.953125 
C 10.203125 40.6875 10.203125 47.109375 11.5 53.234375 
C 13.40625 61.78125 19 64.390625 22.90625 64.390625 
C 27 64.390625 32.296875 61.671875 34.203125 53.4375 
C 35.5 47.71875 35.59375 40.984375 35.59375 32.953125 
C 35.59375 26.421875 35.59375 18.375 34.40625 12.453125 
C 32.296875 1.5 26.40625 -0.40625 22.90625 -0.40625 
z
" id="CMR17-48"/>
        <path d="M 18.40625 4.796875 
C 18.40625 7.6875 16 9.6875 13.59375 9.6875 
C 10.703125 9.6875 8.703125 7.296875 8.703125 4.890625 
C 8.703125 2 11.09375 0 13.5 0 
C 16.40625 0 18.40625 2.390625 18.40625 4.796875 
z
" id="CMMI12-58"/>
        <path d="M 41.703125 15.46875 
L 39.90625 15.46875 
C 38.90625 8.390625 38.09375 7.1875 37.703125 6.59375 
C 37.203125 5.796875 30 5.796875 28.59375 5.796875 
L 9.40625 5.796875 
C 13 9.6875 20 16.765625 28.5 24.9375 
C 34.59375 30.71875 41.703125 37.5 41.703125 47.390625 
C 41.703125 59.1875 32.296875 66 21.796875 66 
C 10.796875 66 4.09375 56.296875 4.09375 47.296875 
C 4.09375 43.390625 7 42.890625 8.203125 42.890625 
C 9.203125 42.890625 12.203125 43.484375 12.203125 46.984375 
C 12.203125 50.09375 9.59375 51 8.203125 51 
C 7.59375 51 7 50.890625 6.59375 50.6875 
C 8.5 59.1875 14.296875 63.390625 20.40625 63.390625 
C 29.09375 63.390625 34.796875 56.5 34.796875 47.390625 
C 34.796875 38.703125 29.703125 31.21875 24 24.734375 
L 4.09375 2.296875 
L 4.09375 0 
L 39.296875 0 
z
" id="CMR17-50"/>
       </defs>
       <use transform="scale(0.996264)" xlink:href="#CMR17-48"/>
       <use transform="translate(45.690477 0)scale(0.996264)" xlink:href="#CMMI12-58"/>
       <use transform="translate(72.787654 0)scale(0.996264)" xlink:href="#CMR17-48"/>
       <use transform="translate(118.478131 0)scale(0.996264)" xlink:href="#CMR17-50"/>
      </g>
     </g>
    </g>
    <g id="xtick_2">
     <g id="line2d_3">
      <path clip-path="url(#p7523345f81)" d="M 131.595652 236.52 
L 131.595652 38.88 
" style="fill:none;stroke:#b0b0b0;stroke-linecap:square;stroke-width:0.8;"/>
     </g>
     <g id="line2d_4">
      <g>
       <use style="stroke:#000000;stroke-width:0.8;" x="131.595652" xlink:href="#mb2c18d8abb" y="236.52"/>
      </g>
     </g>
     <g id="text_2">
      <!-- $\mathdefault{0.03}$ -->
      <g transform="translate(122.739945 250.438498)scale(0.1 -0.1)">
       <defs>
        <path d="M 22.09375 34 
C 31 34 34.90625 26.140625 34.90625 17.09375 
C 34.90625 5.03125 28.5 0.390625 22.703125 0.390625 
C 17.40625 0.390625 8.796875 3.015625 6.09375 10.796875 
C 6.59375 10.59375 7.09375 10.59375 7.59375 10.59375 
C 10 10.59375 11.796875 12.1875 11.796875 14.796875 
C 11.796875 17.6875 9.59375 19 7.59375 19 
C 5.90625 19 3.296875 18.1875 3.296875 14.484375 
C 3.296875 5.234375 12.296875 -2 22.90625 -2 
C 34 -2 42.5 6.75 42.5 16.984375 
C 42.5 26.84375 34.5 34 25 35.09375 
C 32.59375 36.671875 39.90625 43.375 39.90625 52.390625 
C 39.90625 60.25 32 66 23 66 
C 13.90625 66 5.90625 60.34375 5.90625 52.296875 
C 5.90625 48.796875 8.5 48.1875 9.796875 48.1875 
C 11.90625 48.1875 13.703125 49.484375 13.703125 52.09375 
C 13.703125 54.6875 11.90625 56 9.796875 56 
C 9.40625 56 8.90625 56 8.5 55.796875 
C 11.40625 62.484375 19.296875 63.6875 22.796875 63.6875 
C 26.296875 63.6875 32.90625 61.96875 32.90625 52.296875 
C 32.90625 49.484375 32.5 44.546875 29.09375 40.21875 
C 26.09375 36.390625 22.703125 36.1875 19.40625 35.890625 
C 18.90625 35.890625 16.59375 35.6875 16.203125 35.6875 
C 15.5 35.59375 15.09375 35.5 15.09375 34.796875 
C 15.09375 34.09375 15.203125 34 17.203125 34 
z
" id="CMR17-51"/>
       </defs>
       <use transform="scale(0.996264)" xlink:href="#CMR17-48"/>
       <use transform="translate(45.690477 0)scale(0.996264)" xlink:href="#CMMI12-58"/>
       <use transform="translate(72.787654 0)scale(0.996264)" xlink:href="#CMR17-48"/>
       <use transform="translate(118.478131 0)scale(0.996264)" xlink:href="#CMR17-51"/>
      </g>
     </g>
    </g>
    <g id="xtick_3">
     <g id="line2d_5">
      <path clip-path="url(#p7523345f81)" d="M 177.691304 236.52 
L 177.691304 38.88 
" style="fill:none;stroke:#b0b0b0;stroke-linecap:square;stroke-width:0.8;"/>
     </g>
     <g id="line2d_6">
      <g>
       <use style="stroke:#000000;stroke-width:0.8;" x="177.691304" xlink:href="#mb2c18d8abb" y="236.52"/>
      </g>
     </g>
     <g id="text_3">
      <!-- $\mathdefault{0.04}$ -->
      <g transform="translate(168.835597 250.438498)scale(0.1 -0.1)">
       <defs>
        <path d="M 33.59375 64.796875 
C 33.59375 66.890625 33.5 67 31.703125 67 
L 2 19.59375 
L 2 17 
L 27.796875 17 
L 27.796875 7.1875 
C 27.796875 3.59375 27.59375 2.59375 20.59375 2.59375 
L 18.703125 2.59375 
L 18.703125 0 
C 21.90625 0.1875 27.296875 0.1875 30.703125 0.1875 
C 34.09375 0.1875 39.5 0.1875 42.703125 0 
L 42.703125 2.59375 
L 40.796875 2.59375 
C 33.796875 2.59375 33.59375 3.59375 33.59375 7.1875 
L 33.59375 17 
L 43.796875 17 
L 43.796875 19.59375 
L 33.59375 19.59375 
z
M 28.09375 58.171875 
L 28.09375 19.59375 
L 4 19.59375 
z
" id="CMR17-52"/>
       </defs>
       <use transform="scale(0.996264)" xlink:href="#CMR17-48"/>
       <use transform="translate(45.690477 0)scale(0.996264)" xlink:href="#CMMI12-58"/>
       <use transform="translate(72.787654 0)scale(0.996264)" xlink:href="#CMR17-48"/>
       <use transform="translate(118.478131 0)scale(0.996264)" xlink:href="#CMR17-52"/>
      </g>
     </g>
    </g>
    <g id="xtick_4">
     <g id="line2d_7">
      <path clip-path="url(#p7523345f81)" d="M 223.786957 236.52 
L 223.786957 38.88 
" style="fill:none;stroke:#b0b0b0;stroke-linecap:square;stroke-width:0.8;"/>
     </g>
     <g id="line2d_8">
      <g>
       <use style="stroke:#000000;stroke-width:0.8;" x="223.786957" xlink:href="#mb2c18d8abb" y="236.52"/>
      </g>
     </g>
     <g id="text_4">
      <!-- $\mathdefault{0.05}$ -->
      <g transform="translate(214.931249 250.438498)scale(0.1 -0.1)">
       <defs>
        <path d="M 11.40625 58.59375 
C 12.40625 58.1875 16.5 56.890625 20.703125 56.890625 
C 30 56.890625 35.09375 61.890625 38 64.6875 
C 38 65.484375 38 66 37.40625 66 
C 37.296875 66 37.09375 66 36.296875 65.59375 
C 32.796875 64.09375 28.703125 63 23.703125 63 
C 20.703125 63 16.203125 63.359375 11.296875 65.484375 
C 10.203125 66 10 66 9.90625 66 
C 9.40625 66 9.296875 65.890625 9.296875 63.90625 
L 9.296875 34.859375 
C 9.296875 33.015625 9.296875 32.5 10.296875 32.5 
C 10.796875 32.5 11 32.703125 11.5 33.421875 
C 14.703125 38.046875 19.09375 40 24.09375 40 
C 27.59375 40 35.09375 37.734375 35.09375 20.203125 
C 35.09375 16.984375 35.09375 11.1875 32.09375 6.59375 
C 29.59375 2.484375 25.703125 0.390625 21.40625 0.390625 
C 14.796875 0.390625 8.09375 4.984375 6.296875 12.6875 
C 6.703125 12.59375 7.5 12.390625 7.90625 12.390625 
C 9.203125 12.390625 11.703125 13.09375 11.703125 16.1875 
C 11.703125 18.890625 9.796875 20 7.90625 20 
C 5.59375 20 4.09375 18.59375 4.09375 15.796875 
C 4.09375 7.09375 11 -2 21.59375 -2 
C 31.90625 -2 41.703125 6.890625 41.703125 19.796875 
C 41.703125 32.09375 33.90625 41.59375 24.203125 41.59375 
C 19.09375 41.59375 14.796875 39.6875 11.40625 36 
z
" id="CMR17-53"/>
       </defs>
       <use transform="scale(0.996264)" xlink:href="#CMR17-48"/>
       <use transform="translate(45.690477 0)scale(0.996264)" xlink:href="#CMMI12-58"/>
       <use transform="translate(72.787654 0)scale(0.996264)" xlink:href="#CMR17-48"/>
       <use transform="translate(118.478131 0)scale(0.996264)" xlink:href="#CMR17-53"/>
      </g>
     </g>
    </g>
    <g id="xtick_5">
     <g id="line2d_9">
      <path clip-path="url(#p7523345f81)" d="M 269.882609 236.52 
L 269.882609 38.88 
" style="fill:none;stroke:#b0b0b0;stroke-linecap:square;stroke-width:0.8;"/>
     </g>
     <g id="line2d_10">
      <g>
       <use style="stroke:#000000;stroke-width:0.8;" x="269.882609" xlink:href="#mb2c18d8abb" y="236.52"/>
      </g>
     </g>
     <g id="text_5">
      <!-- $\mathdefault{0.06}$ -->
      <g transform="translate(261.026902 250.438498)scale(0.1 -0.1)">
       <defs>
        <path d="M 10.59375 34.34375 
C 10.59375 58 21.796875 63.6875 28.296875 63.6875 
C 30.40625 63.6875 35.5 63.265625 37.5 59.09375 
C 35.90625 59.09375 32.90625 59.09375 32.90625 55.59375 
C 32.90625 52.890625 35.09375 52 36.5 52 
C 37.40625 52 40.09375 52.390625 40.09375 55.796875 
C 40.09375 62.296875 35.09375 66 28.203125 66 
C 16.296875 66 3.796875 53.296875 3.796875 31.421875 
C 3.796875 4.015625 15.09375 -2 23.09375 -2 
C 32.796875 -2 42 6.734375 42 20.234375 
C 42 32.828125 33.90625 42 23.703125 42 
C 17.59375 42 13.09375 37.96875 10.59375 30.921875 
z
M 23.09375 0.390625 
C 10.796875 0.390625 10.796875 18.9375 10.796875 22.65625 
C 10.796875 29.90625 14.203125 40.390625 23.5 40.390625 
C 25.203125 40.390625 30.09375 40.390625 33.40625 33.4375 
C 35.203125 29.515625 35.203125 25.375 35.203125 20.34375 
C 35.203125 14.90625 35.203125 10.875 33.09375 6.84375 
C 30.90625 2.703125 27.703125 0.390625 23.09375 0.390625 
z
" id="CMR17-54"/>
       </defs>
       <use transform="scale(0.996264)" xlink:href="#CMR17-48"/>
       <use transform="translate(45.690477 0)scale(0.996264)" xlink:href="#CMMI12-58"/>
       <use transform="translate(72.787654 0)scale(0.996264)" xlink:href="#CMR17-48"/>
       <use transform="translate(118.478131 0)scale(0.996264)" xlink:href="#CMR17-54"/>
      </g>
     </g>
    </g>
    <g id="xtick_6">
     <g id="line2d_11">
      <path clip-path="url(#p7523345f81)" d="M 315.978261 236.52 
L 315.978261 38.88 
" style="fill:none;stroke:#b0b0b0;stroke-linecap:square;stroke-width:0.8;"/>
     </g>
     <g id="line2d_12">
      <g>
       <use style="stroke:#000000;stroke-width:0.8;" x="315.978261" xlink:href="#mb2c18d8abb" y="236.52"/>
      </g>
     </g>
     <g id="text_6">
      <!-- $\mathdefault{0.07}$ -->
      <g transform="translate(307.122554 250.438498)scale(0.1 -0.1)">
       <defs>
        <path d="M 45.09375 61.796875 
L 45.09375 64 
L 21.59375 64 
C 9.90625 64 9.703125 65.09375 9.296875 67 
L 7.5 67 
L 4.59375 48.5 
L 6.40625 48.5 
C 6.703125 50.40625 7.40625 55.5 8.59375 57.390625 
C 9.203125 58.1875 16.59375 58.1875 18.296875 58.1875 
L 40.296875 58.1875 
L 29.203125 41.71875 
C 21.796875 30.640625 16.703125 15.671875 16.703125 2.59375 
C 16.703125 1.390625 16.703125 -2 20.296875 -2 
C 23.90625 -2 23.90625 1.390625 23.90625 2.6875 
L 23.90625 7.28125 
C 23.90625 23.65625 26.703125 34.4375 31.296875 41.3125 
z
" id="CMR17-55"/>
       </defs>
       <use transform="scale(0.996264)" xlink:href="#CMR17-48"/>
       <use transform="translate(45.690477 0)scale(0.996264)" xlink:href="#CMMI12-58"/>
       <use transform="translate(72.787654 0)scale(0.996264)" xlink:href="#CMR17-48"/>
       <use transform="translate(118.478131 0)scale(0.996264)" xlink:href="#CMR17-55"/>
      </g>
     </g>
    </g>
    <g id="text_7">
     <!-- Habitat \textsc{SPL} -->
     <g transform="translate(173.258922 263.294175)scale(0.1 -0.1)">
      <defs>
       <path d="M 57.40625 69 
L 49 69 
L 49 39 
L 17.203125 39 
L 17.203125 69 
L 8.796875 69 
L 8.796875 0 
L 17.203125 0 
L 17.203125 32.890625 
L 49 32.890625 
L 49 0 
L 57.40625 0 
z
" id="CMSS17-72"/>
       <path d="M 37.59375 27.953125 
C 37.59375 37.484375 30.90625 44 21.90625 44 
C 17.5 44 12.703125 43.1875 7.203125 39.984375 
L 7.796875 33.328125 
C 10.296875 35.15625 14.59375 38.09375 21.796875 38.09375 
C 26.90625 38.09375 30 34.140625 30 27.84375 
L 30 24 
C 14 23.5 4 18.890625 4 11.109375 
C 4 7.0625 6.5 -1 14.796875 -1 
C 16.296875 -1 24.40625 -0.8125 30.203125 3.5 
L 30.203125 -0.203125 
L 37.59375 -0.203125 
z
M 30 12.875 
C 30 11.109375 30 8.734375 27 6.96875 
C 24.40625 5.296875 21.09375 5.09375 19.703125 5.09375 
C 14.703125 5.09375 11.296875 7.859375 11.296875 11.296875 
C 11.296875 18.203125 26.90625 18.890625 30 19 
z
" id="CMSS17-97"/>
       <path d="M 14.90625 69 
L 7.5 69 
L 7.5 -0.203125 
L 15.09375 -0.203125 
L 15.09375 4.296875 
C 18.90625 0.59375 23.5 -1 27.59375 -1 
C 37.203125 -1 45 8.734375 45 21.59375 
C 45 33.328125 39 44 30.09375 44 
C 23.796875 44 18.203125 41.390625 14.90625 38.6875 
z
M 15.09375 32.734375 
C 17.296875 35.5625 20.40625 37.890625 24.796875 37.890625 
C 30.703125 37.890625 37.40625 33.53125 37.40625 21.59375 
C 37.40625 8.84375 29.40625 5.09375 23.90625 5.09375 
C 21.90625 5.09375 19.796875 5.59375 17.796875 7.3125 
C 15.09375 9.75 15.09375 11.265625 15.09375 12.6875 
z
" id="CMSS17-98"/>
       <path d="M 15.296875 66 
L 6.90625 66 
L 6.90625 57.59375 
L 15.296875 57.59375 
z
M 14.796875 43 
L 7.40625 43 
L 7.40625 0 
L 14.796875 0 
z
" id="CMSS17-105"/>
       <path d="M 16.703125 37.1875 
L 29.703125 37.1875 
L 29.703125 43 
L 16.703125 43 
L 16.703125 55 
L 9.59375 55 
L 9.59375 43 
L 1.703125 43 
L 1.703125 37.1875 
L 9.40625 37.1875 
L 9.40625 11.734375 
C 9.40625 6 10.703125 -1 17.296875 -1 
C 22.296875 -1 26.90625 0.390625 31.296875 2.6875 
L 29.703125 8.609375 
C 27.296875 6.5 24.40625 5.296875 21.296875 5.296875 
C 16.90625 5.296875 16.703125 10.921875 16.703125 13.4375 
z
" id="CMSS17-116"/>
       <path d="M 24.40625 42.375 
C 15.703125 44.484375 13.59375 51.421875 13.59375 55.03125 
C 13.59375 61.859375 19.296875 68.1875 27.796875 68.1875 
C 41.59375 68.1875 46.90625 58.046875 48.296875 47.796875 
C 48.5 46.5 48.5 46 49.59375 46 
C 50.90625 46 50.90625 46.5 50.90625 48.40625 
L 50.90625 68.59375 
C 50.90625 70.296875 50.90625 71 49.796875 71 
C 49.09375 71 49.09375 70.890625 48.296875 69.6875 
L 44.59375 63.765625 
C 41.90625 66.484375 37.296875 71 27.703125 71 
C 16.09375 71 7.203125 62.171875 7.203125 51.515625 
C 7.203125 45.09375 10.59375 40.5625 11.90625 39.0625 
C 16.59375 34.140625 19.59375 33.4375 27.90625 31.421875 
C 29.5 31.03125 31.203125 30.71875 32.796875 30.328125 
C 38.703125 28.921875 40.703125 28.421875 43.796875 25 
C 44.40625 24.296875 47.40625 20.875 47.40625 15.453125 
C 47.40625 8.328125 42.09375 1.09375 33 1.09375 
C 28.796875 1.09375 22.09375 1.890625 16.59375 6.21875 
C 10.09375 11.34375 9.796875 18.671875 9.703125 22.09375 
C 9.59375 22.796875 9 22.984375 8.5 22.984375 
C 7.203125 22.984375 7.203125 22.28125 7.203125 20.484375 
L 7.203125 0.390625 
C 7.203125 -1.3125 7.203125 -2 8.296875 -2 
C 9 -2 9.203125 -1.703125 9.796875 -0.8125 
L 13.5 5.203125 
C 16.296875 2.296875 22.796875 -2 33.09375 -2 
C 45.59375 -2 53.796875 8.125 53.796875 18.765625 
C 53.796875 26.8125 49 36.34375 38 39.0625 
z
" id="CMCSC10-83"/>
       <path d="M 43 31.390625 
C 55.203125 31.390625 66.90625 39.171875 66.90625 49.4375 
C 66.90625 59.3125 56.296875 68 42.203125 68 
L 5.703125 68 
L 5.703125 64.890625 
L 8.09375 64.890625 
C 15.796875 64.890625 16 63.796875 16 60.203125 
L 16 7.765625 
C 16 4.1875 15.796875 3.09375 8.09375 3.09375 
L 5.703125 3.09375 
L 5.703125 0 
C 9.203125 0.296875 16.59375 0.296875 20.40625 0.296875 
C 24.203125 0.296875 31.703125 0.296875 35.203125 0 
L 35.203125 3.09375 
L 32.796875 3.09375 
C 25.09375 3.09375 24.90625 4.1875 24.90625 7.765625 
L 24.90625 31.390625 
z
M 24.59375 60.90625 
C 24.59375 64.1875 24.796875 64.890625 29.5 64.890625 
L 39.59375 64.890625 
C 56.59375 64.890625 56.59375 53.921875 56.59375 49.4375 
C 56.59375 45.15625 56.59375 34 39.59375 34 
L 24.59375 34 
z
" id="CMCSC10-80"/>
       <path d="M 62.40625 25.6875 
L 59.90625 25.6875 
C 58.796875 15.734375 57.40625 3.09375 39 3.09375 
L 29.59375 3.09375 
C 24.90625 3.09375 24.703125 3.78125 24.703125 7.078125 
L 24.703125 60.109375 
C 24.703125 63.5 24.703125 64.890625 34.203125 64.890625 
L 37.5 64.890625 
L 37.5 68 
C 33.90625 67.6875 24.796875 67.6875 20.703125 67.6875 
C 16.796875 67.6875 9 67.6875 5.5 68 
L 5.5 64.890625 
L 7.90625 64.890625 
C 15.59375 64.890625 15.796875 63.796875 15.796875 60.21875 
L 15.796875 7.765625 
C 15.796875 4.1875 15.59375 3.09375 7.90625 3.09375 
L 5.5 3.09375 
L 5.5 0 
L 59.59375 0 
z
" id="CMCSC10-76"/>
      </defs>
      <use transform="scale(0.996264)" xlink:href="#CMSS17-72"/>
      <use transform="translate(66.061519 0)scale(0.996264)" xlink:href="#CMSS17-97"/>
      <use transform="translate(110.98344 0)scale(0.996264)" xlink:href="#CMSS17-98"/>
      <use transform="translate(159.188383 0)scale(0.996264)" xlink:href="#CMSS17-105"/>
      <use transform="translate(181.369106 0)scale(0.996264)" xlink:href="#CMSS17-116"/>
      <use transform="translate(215.200673 0)scale(0.996264)" xlink:href="#CMSS17-97"/>
      <use transform="translate(260.122593 0)scale(0.996264)" xlink:href="#CMSS17-116"/>
      <use transform="translate(325.183273 0)scale(0.996264)" xlink:href="#CMCSC10-83"/>
      <use transform="translate(386.065453 0)scale(0.996264)" xlink:href="#CMCSC10-80"/>
      <use transform="translate(459.954279 0)scale(0.996264)" xlink:href="#CMCSC10-76"/>
     </g>
    </g>
   </g>
   <g id="matplotlib.axis_2">
    <g id="ytick_1">
     <g id="line2d_13">
      <path clip-path="url(#p7523345f81)" d="M 85.5 221.316923 
L 315.978261 221.316923 
" style="fill:none;stroke:#b0b0b0;stroke-linecap:square;stroke-width:0.8;"/>
     </g>
     <g id="line2d_14">
      <defs>
       <path d="M 0 0 
L -3.5 0 
" id="mb93b548b8c" style="stroke:#000000;stroke-width:0.8;"/>
      </defs>
      <g>
       <use style="stroke:#000000;stroke-width:0.8;" x="85.5" xlink:href="#mb93b548b8c" y="221.316923"/>
      </g>
     </g>
     <g id="text_8">
      <!-- $\mathdefault{0.05}$ -->
      <g transform="translate(60.788586 224.776172)scale(0.1 -0.1)">
       <use transform="scale(0.996264)" xlink:href="#CMR17-48"/>
       <use transform="translate(45.690477 0)scale(0.996264)" xlink:href="#CMMI12-58"/>
       <use transform="translate(72.787654 0)scale(0.996264)" xlink:href="#CMR17-48"/>
       <use transform="translate(118.478131 0)scale(0.996264)" xlink:href="#CMR17-53"/>
      </g>
     </g>
    </g>
    <g id="ytick_2">
     <g id="line2d_15">
      <path clip-path="url(#p7523345f81)" d="M 85.5 190.910769 
L 315.978261 190.910769 
" style="fill:none;stroke:#b0b0b0;stroke-linecap:square;stroke-width:0.8;"/>
     </g>
     <g id="line2d_16">
      <g>
       <use style="stroke:#000000;stroke-width:0.8;" x="85.5" xlink:href="#mb93b548b8c" y="190.910769"/>
      </g>
     </g>
     <g id="text_9">
      <!-- $\mathdefault{0.06}$ -->
      <g transform="translate(60.788586 194.370018)scale(0.1 -0.1)">
       <use transform="scale(0.996264)" xlink:href="#CMR17-48"/>
       <use transform="translate(45.690477 0)scale(0.996264)" xlink:href="#CMMI12-58"/>
       <use transform="translate(72.787654 0)scale(0.996264)" xlink:href="#CMR17-48"/>
       <use transform="translate(118.478131 0)scale(0.996264)" xlink:href="#CMR17-54"/>
      </g>
     </g>
    </g>
    <g id="ytick_3">
     <g id="line2d_17">
      <path clip-path="url(#p7523345f81)" d="M 85.5 160.504615 
L 315.978261 160.504615 
" style="fill:none;stroke:#b0b0b0;stroke-linecap:square;stroke-width:0.8;"/>
     </g>
     <g id="line2d_18">
      <g>
       <use style="stroke:#000000;stroke-width:0.8;" x="85.5" xlink:href="#mb93b548b8c" y="160.504615"/>
      </g>
     </g>
     <g id="text_10">
      <!-- $\mathdefault{0.07}$ -->
      <g transform="translate(60.788586 163.963865)scale(0.1 -0.1)">
       <use transform="scale(0.996264)" xlink:href="#CMR17-48"/>
       <use transform="translate(45.690477 0)scale(0.996264)" xlink:href="#CMMI12-58"/>
       <use transform="translate(72.787654 0)scale(0.996264)" xlink:href="#CMR17-48"/>
       <use transform="translate(118.478131 0)scale(0.996264)" xlink:href="#CMR17-55"/>
      </g>
     </g>
    </g>
    <g id="ytick_4">
     <g id="line2d_19">
      <path clip-path="url(#p7523345f81)" d="M 85.5 130.098462 
L 315.978261 130.098462 
" style="fill:none;stroke:#b0b0b0;stroke-linecap:square;stroke-width:0.8;"/>
     </g>
     <g id="line2d_20">
      <g>
       <use style="stroke:#000000;stroke-width:0.8;" x="85.5" xlink:href="#mb93b548b8c" y="130.098462"/>
      </g>
     </g>
     <g id="text_11">
      <!-- $\mathdefault{0.08}$ -->
      <g transform="translate(60.788586 133.557711)scale(0.1 -0.1)">
       <defs>
        <path d="M 27.203125 35.765625 
C 33.5 38.96875 39.90625 43.796875 39.90625 51.53125 
C 39.90625 60.6875 31.09375 66 23 66 
C 13.90625 66 5.90625 59.375 5.90625 50.234375 
C 5.90625 47.71875 6.5 43.390625 10.40625 39.578125 
C 11.40625 38.578125 15.59375 35.5625 18.296875 33.65625 
C 13.796875 31.34375 3.296875 25.8125 3.296875 14.765625 
C 3.296875 4.40625 13.09375 -2 22.796875 -2 
C 33.5 -2 42.5 5.71875 42.5 15.96875 
C 42.5 25.109375 36.40625 29.328125 32.40625 32.046875 
z
M 14.09375 44.609375 
C 13.296875 45.109375 9.296875 48.21875 9.296875 52.9375 
C 9.296875 59.078125 15.59375 63.6875 22.796875 63.6875 
C 30.703125 63.6875 36.5 58.0625 36.5 51.53125 
C 36.5 42.1875 26.09375 36.859375 25.59375 36.859375 
C 25.5 36.859375 25.40625 36.859375 24.59375 37.46875 
z
M 32.5 24 
C 34 22.90625 38.796875 19.578125 38.796875 13.453125 
C 38.796875 6.015625 31.40625 0.390625 23 0.390625 
C 13.90625 0.390625 7 6.921875 7 14.859375 
C 7 22.796875 13.09375 29.4375 20 32.546875 
z
" id="CMR17-56"/>
       </defs>
       <use transform="scale(0.996264)" xlink:href="#CMR17-48"/>
       <use transform="translate(45.690477 0)scale(0.996264)" xlink:href="#CMMI12-58"/>
       <use transform="translate(72.787654 0)scale(0.996264)" xlink:href="#CMR17-48"/>
       <use transform="translate(118.478131 0)scale(0.996264)" xlink:href="#CMR17-56"/>
      </g>
     </g>
    </g>
    <g id="ytick_5">
     <g id="line2d_21">
      <path clip-path="url(#p7523345f81)" d="M 85.5 99.692308 
L 315.978261 99.692308 
" style="fill:none;stroke:#b0b0b0;stroke-linecap:square;stroke-width:0.8;"/>
     </g>
     <g id="line2d_22">
      <g>
       <use style="stroke:#000000;stroke-width:0.8;" x="85.5" xlink:href="#mb93b548b8c" y="99.692308"/>
      </g>
     </g>
     <g id="text_12">
      <!-- $\mathdefault{0.09}$ -->
      <g transform="translate(60.788586 103.151557)scale(0.1 -0.1)">
       <defs>
        <path d="M 35.203125 29.234375 
C 35.203125 7 26.09375 0.390625 18.59375 0.390625 
C 16.296875 0.390625 10.703125 0.671875 8.40625 4.390625 
C 11 4 12.90625 5.390625 12.90625 7.890625 
C 12.90625 10.59375 10.703125 11.5 9.296875 11.5 
C 8.40625 11.5 5.703125 11.09375 5.703125 7.6875 
C 5.703125 1.0625 11.59375 -2 18.796875 -2 
C 30.296875 -2 42 10.390625 42 32.65625 
C 42 60.265625 30.796875 66 23.203125 66 
C 13.296875 66 3.796875 57.25 3.796875 43.75 
C 3.796875 31.25 11.90625 22 22.09375 22 
C 30.5 22 34.203125 29.84375 35.203125 33.15625 
z
M 22.296875 23.59375 
C 19.59375 23.59375 15.796875 24.09375 12.703125 30.140625 
C 10.59375 34.078125 10.59375 38.703125 10.59375 43.640625 
C 10.59375 49.59375 10.59375 53.71875 13.40625 58.15625 
C 14.796875 60.265625 17.40625 63.6875 23.203125 63.6875 
C 35 63.6875 35 45.453125 35 41.421875 
C 35 34.265625 31.796875 23.59375 22.296875 23.59375 
z
" id="CMR17-57"/>
       </defs>
       <use transform="scale(0.996264)" xlink:href="#CMR17-48"/>
       <use transform="translate(45.690477 0)scale(0.996264)" xlink:href="#CMMI12-58"/>
       <use transform="translate(72.787654 0)scale(0.996264)" xlink:href="#CMR17-48"/>
       <use transform="translate(118.478131 0)scale(0.996264)" xlink:href="#CMR17-57"/>
      </g>
     </g>
    </g>
    <g id="ytick_6">
     <g id="line2d_23">
      <path clip-path="url(#p7523345f81)" d="M 85.5 69.286154 
L 315.978261 69.286154 
" style="fill:none;stroke:#b0b0b0;stroke-linecap:square;stroke-width:0.8;"/>
     </g>
     <g id="line2d_24">
      <g>
       <use style="stroke:#000000;stroke-width:0.8;" x="85.5" xlink:href="#mb93b548b8c" y="69.286154"/>
      </g>
     </g>
     <g id="text_13">
      <!-- $\mathdefault{0.10}$ -->
      <g transform="translate(60.788586 72.745403)scale(0.1 -0.1)">
       <defs>
        <path d="M 26.59375 63.796875 
C 26.59375 65.890625 26.5 66 25.09375 66 
C 21.203125 61.359375 15.296875 59.890625 9.703125 59.6875 
C 9.40625 59.6875 8.90625 59.6875 8.796875 59.5 
C 8.703125 59.296875 8.703125 59.09375 8.703125 57 
C 11.796875 57 17 57.59375 21 59.984375 
L 21 7.296875 
C 21 3.796875 20.796875 2.59375 12.203125 2.59375 
L 9.203125 2.59375 
L 9.203125 0 
C 14 0.09375 19 0.1875 23.796875 0.1875 
C 28.59375 0.1875 33.59375 0.09375 38.40625 0 
L 38.40625 2.59375 
L 35.40625 2.59375 
C 26.796875 2.59375 26.59375 3.6875 26.59375 7.296875 
z
" id="CMR17-49"/>
       </defs>
       <use transform="scale(0.996264)" xlink:href="#CMR17-48"/>
       <use transform="translate(45.690477 0)scale(0.996264)" xlink:href="#CMMI12-58"/>
       <use transform="translate(72.787654 0)scale(0.996264)" xlink:href="#CMR17-49"/>
       <use transform="translate(118.478131 0)scale(0.996264)" xlink:href="#CMR17-48"/>
      </g>
     </g>
    </g>
    <g id="ytick_7">
     <g id="line2d_25">
      <path clip-path="url(#p7523345f81)" d="M 85.5 38.88 
L 315.978261 38.88 
" style="fill:none;stroke:#b0b0b0;stroke-linecap:square;stroke-width:0.8;"/>
     </g>
     <g id="line2d_26">
      <g>
       <use style="stroke:#000000;stroke-width:0.8;" x="85.5" xlink:href="#mb93b548b8c" y="38.88"/>
      </g>
     </g>
     <g id="text_14">
      <!-- $\mathdefault{0.11}$ -->
      <g transform="translate(60.788586 42.339249)scale(0.1 -0.1)">
       <use transform="scale(0.996264)" xlink:href="#CMR17-48"/>
       <use transform="translate(45.690477 0)scale(0.996264)" xlink:href="#CMMI12-58"/>
       <use transform="translate(72.787654 0)scale(0.996264)" xlink:href="#CMR17-49"/>
       <use transform="translate(118.478131 0)scale(0.996264)" xlink:href="#CMR17-49"/>
      </g>
     </g>
    </g>
    <g id="text_15">
     <!-- RoboTHOR \textsc{SPL} -->
     <g transform="translate(54.851407 174.215806)rotate(-90)scale(0.1 -0.1)">
      <defs>
       <path d="M 39.40625 32.796875 
L 39.59375 32.890625 
C 55.203125 38.28125 55.296875 48.828125 55.296875 50.6875 
C 55.296875 59.96875 45.703125 69 31.296875 69 
L 8.90625 69 
L 8.90625 0 
L 17.09375 0 
L 17.09375 31.890625 
L 31.796875 31.890625 
L 49.5 0 
L 57.90625 0 
z
M 17.09375 38 
L 17.09375 63.390625 
L 30.203125 63.390625 
C 42.90625 63.390625 47.40625 56.359375 47.40625 50.6875 
C 47.40625 45.421875 43.40625 38 30.203125 38 
z
" id="CMSS17-82"/>
       <path d="M 44.203125 21.1875 
C 44.203125 33.984375 34.703125 44 23.5 44 
C 12 44 2.703125 33.6875 2.703125 21.1875 
C 2.703125 8.5 12.296875 -1 23.40625 -1 
C 34.796875 -1 44.203125 8.796875 44.203125 21.1875 
z
M 23.5 5.296875 
C 16.40625 5.296875 10.296875 11.09375 10.296875 21.984375 
C 10.296875 33.59375 17.40625 37.890625 23.40625 37.890625 
C 29.90625 37.890625 36.59375 33.1875 36.59375 21.984375 
C 36.59375 10.6875 30.09375 5.296875 23.5 5.296875 
z
" id="CMSS17-111"/>
       <path d="M 36.203125 62.296875 
L 44.5 62.296875 
C 45.703125 62.296875 46.90625 62.1875 48.09375 62.1875 
L 60.59375 62.1875 
L 60.59375 68.6875 
L 3.40625 68.6875 
L 3.40625 62.1875 
L 15.90625 62.1875 
C 17.09375 62.1875 18.296875 62.296875 19.5 62.296875 
L 27.796875 62.296875 
L 27.796875 0 
L 36.203125 0 
z
" id="CMSS17-84"/>
       <path d="M 64 34.390625 
C 64 55.328125 50.296875 71 34.59375 71 
C 18.90625 71 5.203125 55.234375 5.203125 34.390625 
C 5.203125 13.359375 19.09375 -2 34.59375 -2 
C 50.09375 -2 64 13.359375 64 34.390625 
z
M 34.59375 4.296875 
C 23.59375 4.296875 13.59375 16.671875 13.59375 35.703125 
C 13.59375 54.21875 24.203125 64.6875 34.59375 64.6875 
C 45 64.6875 55.59375 54.21875 55.59375 35.703125 
C 55.59375 16.578125 45.5 4.296875 34.59375 4.296875 
z
" id="CMSS17-79"/>
      </defs>
      <use transform="scale(0.996264)" xlink:href="#CMSS17-82"/>
      <use transform="translate(60.416155 0)scale(0.996264)" xlink:href="#CMSS17-111"/>
      <use transform="translate(107.259778 0)scale(0.996264)" xlink:href="#CMSS17-98"/>
      <use transform="translate(158.06716 0)scale(0.996264)" xlink:href="#CMSS17-111"/>
      <use transform="translate(204.910784 0)scale(0.996264)" xlink:href="#CMSS17-84"/>
      <use transform="translate(268.730238 0)scale(0.996264)" xlink:href="#CMSS17-72"/>
      <use transform="translate(334.791757 0)scale(0.996264)" xlink:href="#CMSS17-79"/>
      <use transform="translate(403.816012 0)scale(0.996264)" xlink:href="#CMSS17-82"/>
      <use transform="translate(495.46128 0)scale(0.996264)" xlink:href="#CMCSC10-83"/>
      <use transform="translate(556.343461 0)scale(0.996264)" xlink:href="#CMCSC10-80"/>
      <use transform="translate(630.232286 0)scale(0.996264)" xlink:href="#CMCSC10-76"/>
     </g>
    </g>
   </g>
   <g id="patch_3">
    <path d="M 85.5 236.52 
L 85.5 38.88 
" style="fill:none;stroke:#000000;stroke-linecap:square;stroke-linejoin:miter;stroke-width:0.8;"/>
   </g>
   <g id="patch_4">
    <path d="M 315.978261 236.52 
L 315.978261 38.88 
" style="fill:none;stroke:#000000;stroke-linecap:square;stroke-linejoin:miter;stroke-width:0.8;"/>
   </g>
   <g id="patch_5">
    <path d="M 85.5 236.52 
L 315.978261 236.52 
" style="fill:none;stroke:#000000;stroke-linecap:square;stroke-linejoin:miter;stroke-width:0.8;"/>
   </g>
   <g id="patch_6">
    <path d="M 85.5 38.88 
L 315.978261 38.88 
" style="fill:none;stroke:#000000;stroke-linecap:square;stroke-linejoin:miter;stroke-width:0.8;"/>
   </g>
   <g id="PathCollection_1">
    <defs>
     <path d="M 0 4.472136 
C 1.186024 4.472136 2.323632 4.000923 3.162278 3.162278 
C 4.000923 2.323632 4.472136 1.186024 4.472136 0 
C 4.472136 -1.186024 4.000923 -2.323632 3.162278 -3.162278 
C 2.323632 -4.000923 1.186024 -4.472136 0 -4.472136 
C -1.186024 -4.472136 -2.323632 -4.000923 -3.162278 -3.162278 
C -4.000923 -2.323632 -4.472136 -1.186024 -4.472136 0 
C -4.472136 1.186024 -4.000923 2.323632 -3.162278 3.162278 
C -2.323632 4.000923 -1.186024 4.472136 0 4.472136 
z
" id="mc1a2ab83c4" style="stroke:#000000;"/>
    </defs>
    <g clip-path="url(#p7523345f81)">
     <use style="fill:#ff7f0e;stroke:#000000;" x="283.711304" xlink:href="#mc1a2ab83c4" y="69.286154"/>
    </g>
   </g>
   <g id="PathCollection_2">
    <defs>
     <path d="M 0 4.472136 
C 1.186024 4.472136 2.323632 4.000923 3.162278 3.162278 
C 4.000923 2.323632 4.472136 1.186024 4.472136 0 
C 4.472136 -1.186024 4.000923 -2.323632 3.162278 -3.162278 
C 2.323632 -4.000923 1.186024 -4.472136 0 -4.472136 
C -1.186024 -4.472136 -2.323632 -4.000923 -3.162278 -3.162278 
C -4.000923 -2.323632 -4.472136 -1.186024 -4.472136 0 
C -4.472136 1.186024 -4.000923 2.323632 -3.162278 3.162278 
C -2.323632 4.000923 -1.186024 4.472136 0 4.472136 
z
" id="m4c72908a1d" style="stroke:#000000;"/>
    </defs>
    <g clip-path="url(#p7523345f81)">
     <use style="fill:#f4a460;stroke:#000000;" x="228.396522" xlink:href="#m4c72908a1d" y="84.489231"/>
    </g>
   </g>
   <g id="PathCollection_3">
    <defs>
     <path d="M 0 4.472136 
C 1.186024 4.472136 2.323632 4.000923 3.162278 3.162278 
C 4.000923 2.323632 4.472136 1.186024 4.472136 0 
C 4.472136 -1.186024 4.000923 -2.323632 3.162278 -3.162278 
C 2.323632 -4.000923 1.186024 -4.472136 0 -4.472136 
C -1.186024 -4.472136 -2.323632 -4.000923 -3.162278 -3.162278 
C -4.000923 -2.323632 -4.472136 -1.186024 -4.472136 0 
C -4.472136 1.186024 -4.000923 2.323632 -3.162278 3.162278 
C -2.323632 4.000923 -1.186024 4.472136 0 4.472136 
z
" id="mb147502c2e" style="stroke:#000000;"/>
    </defs>
    <g clip-path="url(#p7523345f81)">
     <use style="fill:#ffd700;stroke:#000000;" x="209.958261" xlink:href="#mb147502c2e" y="90.570462"/>
    </g>
   </g>
   <g id="PathCollection_4">
    <defs>
     <path d="M 0 4.472136 
C 1.186024 4.472136 2.323632 4.000923 3.162278 3.162278 
C 4.000923 2.323632 4.472136 1.186024 4.472136 0 
C 4.472136 -1.186024 4.000923 -2.323632 3.162278 -3.162278 
C 2.323632 -4.000923 1.186024 -4.472136 0 -4.472136 
C -1.186024 -4.472136 -2.323632 -4.000923 -3.162278 -3.162278 
C -4.000923 -2.323632 -4.472136 -1.186024 -4.472136 0 
C -4.472136 1.186024 -4.000923 2.323632 -3.162278 3.162278 
C -2.323632 4.000923 -1.186024 4.472136 0 4.472136 
z
" id="mc9dbc19def" style="stroke:#000000;"/>
    </defs>
    <g clip-path="url(#p7523345f81)">
     <use style="fill:#ffe4b5;stroke:#000000;" x="186.910435" xlink:href="#mc9dbc19def" y="96.651692"/>
    </g>
   </g>
   <g id="PathCollection_5">
    <defs>
     <path d="M -4.472136 4.472136 
L 4.472136 4.472136 
L 4.472136 -4.472136 
L -4.472136 -4.472136 
z
" id="m8ba3a83ecb" style="stroke:#000000;"/>
    </defs>
    <g clip-path="url(#p7523345f81)">
     <use style="fill:#1f77b4;stroke:#000000;" x="196.129565" xlink:href="#m8ba3a83ecb" y="190.910769"/>
    </g>
   </g>
   <g id="PathCollection_6">
    <defs>
     <path d="M -4.472136 4.472136 
L 4.472136 4.472136 
L 4.472136 -4.472136 
L -4.472136 -4.472136 
z
" id="m76e8c48fcb" style="stroke:#000000;"/>
    </defs>
    <g clip-path="url(#p7523345f81)">
     <use style="fill:#b0c4de;stroke:#000000;" x="196.129565" xlink:href="#m76e8c48fcb" y="215.235692"/>
    </g>
   </g>
   <g id="PathCollection_7">
    <defs>
     <path d="M -0 6.324555 
L 6.324555 0 
L 0 -6.324555 
L -6.324555 -0 
z
" id="mdd9ea89567" style="stroke:#000000;"/>
    </defs>
    <g clip-path="url(#p7523345f81)">
     <use style="fill:#2ca02c;stroke:#000000;" x="140.814783" xlink:href="#mdd9ea89567" y="117.936"/>
    </g>
   </g>
   <g id="PathCollection_8">
    <defs>
     <path d="M -0 6.324555 
L 6.324555 0 
L 0 -6.324555 
L -6.324555 -0 
z
" id="ma958098673" style="stroke:#000000;"/>
    </defs>
    <g clip-path="url(#p7523345f81)">
     <use style="fill:#98fb98;stroke:#000000;" x="126.986087" xlink:href="#ma958098673" y="130.098462"/>
    </g>
   </g>
  </g>
  <g id="axes_2">
   <g id="patch_7">
    <path d="M 385.121739 236.52 
L 615.6 236.52 
L 615.6 38.88 
L 385.121739 38.88 
z
" style="fill:#ffffff;"/>
   </g>
   <g id="matplotlib.axis_3">
    <g id="xtick_7">
     <g id="line2d_27">
      <path clip-path="url(#p25c1dc5b59)" d="M 385.121739 236.52 
L 385.121739 38.88 
" style="fill:none;stroke:#b0b0b0;stroke-linecap:square;stroke-width:0.8;"/>
     </g>
     <g id="line2d_28">
      <g>
       <use style="stroke:#000000;stroke-width:0.8;" x="385.121739" xlink:href="#mb2c18d8abb" y="236.52"/>
      </g>
     </g>
     <g id="text_16">
      <!-- $\mathdefault{0.07}$ -->
      <g transform="translate(376.266032 250.438498)scale(0.1 -0.1)">
       <use transform="scale(0.996264)" xlink:href="#CMR17-48"/>
       <use transform="translate(45.690477 0)scale(0.996264)" xlink:href="#CMMI12-58"/>
       <use transform="translate(72.787654 0)scale(0.996264)" xlink:href="#CMR17-48"/>
       <use transform="translate(118.478131 0)scale(0.996264)" xlink:href="#CMR17-55"/>
      </g>
     </g>
    </g>
    <g id="xtick_8">
     <g id="line2d_29">
      <path clip-path="url(#p25c1dc5b59)" d="M 431.217391 236.52 
L 431.217391 38.88 
" style="fill:none;stroke:#b0b0b0;stroke-linecap:square;stroke-width:0.8;"/>
     </g>
     <g id="line2d_30">
      <g>
       <use style="stroke:#000000;stroke-width:0.8;" x="431.217391" xlink:href="#mb2c18d8abb" y="236.52"/>
      </g>
     </g>
     <g id="text_17">
      <!-- $\mathdefault{0.08}$ -->
      <g transform="translate(422.361684 250.438498)scale(0.1 -0.1)">
       <use transform="scale(0.996264)" xlink:href="#CMR17-48"/>
       <use transform="translate(45.690477 0)scale(0.996264)" xlink:href="#CMMI12-58"/>
       <use transform="translate(72.787654 0)scale(0.996264)" xlink:href="#CMR17-48"/>
       <use transform="translate(118.478131 0)scale(0.996264)" xlink:href="#CMR17-56"/>
      </g>
     </g>
    </g>
    <g id="xtick_9">
     <g id="line2d_31">
      <path clip-path="url(#p25c1dc5b59)" d="M 477.313043 236.52 
L 477.313043 38.88 
" style="fill:none;stroke:#b0b0b0;stroke-linecap:square;stroke-width:0.8;"/>
     </g>
     <g id="line2d_32">
      <g>
       <use style="stroke:#000000;stroke-width:0.8;" x="477.313043" xlink:href="#mb2c18d8abb" y="236.52"/>
      </g>
     </g>
     <g id="text_18">
      <!-- $\mathdefault{0.09}$ -->
      <g transform="translate(468.457336 250.438498)scale(0.1 -0.1)">
       <use transform="scale(0.996264)" xlink:href="#CMR17-48"/>
       <use transform="translate(45.690477 0)scale(0.996264)" xlink:href="#CMMI12-58"/>
       <use transform="translate(72.787654 0)scale(0.996264)" xlink:href="#CMR17-48"/>
       <use transform="translate(118.478131 0)scale(0.996264)" xlink:href="#CMR17-57"/>
      </g>
     </g>
    </g>
    <g id="xtick_10">
     <g id="line2d_33">
      <path clip-path="url(#p25c1dc5b59)" d="M 523.408696 236.52 
L 523.408696 38.88 
" style="fill:none;stroke:#b0b0b0;stroke-linecap:square;stroke-width:0.8;"/>
     </g>
     <g id="line2d_34">
      <g>
       <use style="stroke:#000000;stroke-width:0.8;" x="523.408696" xlink:href="#mb2c18d8abb" y="236.52"/>
      </g>
     </g>
     <g id="text_19">
      <!-- $\mathdefault{0.10}$ -->
      <g transform="translate(514.552989 250.438498)scale(0.1 -0.1)">
       <use transform="scale(0.996264)" xlink:href="#CMR17-48"/>
       <use transform="translate(45.690477 0)scale(0.996264)" xlink:href="#CMMI12-58"/>
       <use transform="translate(72.787654 0)scale(0.996264)" xlink:href="#CMR17-49"/>
       <use transform="translate(118.478131 0)scale(0.996264)" xlink:href="#CMR17-48"/>
      </g>
     </g>
    </g>
    <g id="xtick_11">
     <g id="line2d_35">
      <path clip-path="url(#p25c1dc5b59)" d="M 569.504348 236.52 
L 569.504348 38.88 
" style="fill:none;stroke:#b0b0b0;stroke-linecap:square;stroke-width:0.8;"/>
     </g>
     <g id="line2d_36">
      <g>
       <use style="stroke:#000000;stroke-width:0.8;" x="569.504348" xlink:href="#mb2c18d8abb" y="236.52"/>
      </g>
     </g>
     <g id="text_20">
      <!-- $\mathdefault{0.11}$ -->
      <g transform="translate(560.648641 250.438498)scale(0.1 -0.1)">
       <use transform="scale(0.996264)" xlink:href="#CMR17-48"/>
       <use transform="translate(45.690477 0)scale(0.996264)" xlink:href="#CMMI12-58"/>
       <use transform="translate(72.787654 0)scale(0.996264)" xlink:href="#CMR17-49"/>
       <use transform="translate(118.478131 0)scale(0.996264)" xlink:href="#CMR17-49"/>
      </g>
     </g>
    </g>
    <g id="xtick_12">
     <g id="line2d_37">
      <path clip-path="url(#p25c1dc5b59)" d="M 615.6 236.52 
L 615.6 38.88 
" style="fill:none;stroke:#b0b0b0;stroke-linecap:square;stroke-width:0.8;"/>
     </g>
     <g id="line2d_38">
      <g>
       <use style="stroke:#000000;stroke-width:0.8;" x="615.6" xlink:href="#mb2c18d8abb" y="236.52"/>
      </g>
     </g>
     <g id="text_21">
      <!-- $\mathdefault{0.12}$ -->
      <g transform="translate(606.744293 250.438498)scale(0.1 -0.1)">
       <use transform="scale(0.996264)" xlink:href="#CMR17-48"/>
       <use transform="translate(45.690477 0)scale(0.996264)" xlink:href="#CMMI12-58"/>
       <use transform="translate(72.787654 0)scale(0.996264)" xlink:href="#CMR17-49"/>
       <use transform="translate(118.478131 0)scale(0.996264)" xlink:href="#CMR17-50"/>
      </g>
     </g>
    </g>
    <g id="text_22">
     <!-- Habitat \textsc{Success} -->
     <g transform="translate(463.695668 263.294175)scale(0.1 -0.1)">
      <defs>
       <path d="M 18.703125 43.875 
C 18.703125 47.90625 19.203125 48.484375 25.90625 48.484375 
L 25.90625 51 
C 23 50.890625 17.296875 50.6875 15.09375 50.6875 
C 12.90625 50.6875 7.296875 50.890625 4.296875 51 
L 4.296875 48.484375 
C 11.09375 48.484375 11.5 47.90625 11.5 43.671875 
L 11.5 22.34375 
C 11.5 19.875 11.5 16.234375 11.703125 14.96875 
C 12.59375 7 20.59375 -1 31.703125 -1 
C 43.296875 -1 49.703125 9.0625 49.796875 16.234375 
L 49.796875 42.390625 
C 49.90625 46.328125 52.5 48.484375 57 48.484375 
L 57 51 
C 54.5 50.796875 49.203125 50.6875 48.59375 50.6875 
C 45.796875 50.6875 42.90625 50.796875 40.09375 51 
L 40.09375 48.484375 
C 47.296875 48.484375 47.296875 43.28125 47.296875 41.015625 
L 47.296875 17.90625 
C 47.296875 6.5 38.703125 1.5 31.90625 1.5 
C 28.90625 1.5 18.703125 2.671875 18.703125 17.421875 
z
" id="CMCSC10-117"/>
       <path d="M 47.59375 46.703125 
C 45.5 48.90625 40.59375 53 33.09375 53 
C 18 53 5.09375 41.125 5.09375 26 
C 5.09375 10.859375 18 -1 33.09375 -1 
C 46.09375 -1 54 9.359375 54 18.03125 
C 54 18.921875 54 19.625 52.703125 19.625 
C 51.59375 19.625 51.59375 19.015625 51.5 18.03125 
C 50.796875 7.46875 42.203125 1.5 33.796875 1.5 
C 28.796875 1.5 13.703125 4.1875 13.703125 26 
C 13.703125 48.109375 29.203125 50.484375 33.703125 50.484375 
C 41 50.484375 49.5 45.3125 51.40625 32.671875 
C 51.59375 31.96875 51.703125 31.375 52.703125 31.375 
C 54 31.375 54 31.875 54 33.765625 
L 54 50.59375 
C 54 52.1875 54 53 53 53 
C 52.40625 53 52.296875 52.796875 51.5 51.796875 
z
" id="CMCSC10-99"/>
       <path d="M 48.796875 50.6875 
L 4.296875 50.6875 
L 4.296875 48.1875 
C 11 48.1875 11.5 47.59375 11.5 43.515625 
L 11.5 7.125 
C 11.5 3.078125 11 2.5 4.296875 2.5 
L 4.296875 0 
L 50 0 
L 52.90625 19.171875 
L 50.40625 19.171875 
C 48.703125 7.234375 46.296875 2.5 33.5 2.5 
L 22.703125 2.5 
C 19.203125 2.5 18.703125 2.78125 18.703125 6.734375 
L 18.703125 25 
L 25.703125 25 
C 33.09375 25 34.296875 23.015625 34.296875 16.40625 
L 36.796875 16.40625 
L 36.796875 36.15625 
L 34.296875 36.15625 
C 34.296875 29.484375 33.09375 27.5 25.703125 27.5 
L 18.703125 27.5 
L 18.703125 43.90625 
C 18.703125 47.890625 19.203125 48.1875 22.703125 48.1875 
L 32.90625 48.1875 
C 44.5 48.1875 47.09375 44.703125 48.203125 33.859375 
L 50.703125 33.859375 
z
" id="CMCSC10-101"/>
       <path d="M 38.40625 50.59375 
C 38.40625 52.1875 38.40625 53 37.40625 53 
C 36.796875 53 36.703125 52.890625 35.203125 50.6875 
C 34.703125 50.1875 33.703125 48.703125 33.296875 48.109375 
C 29.5 51.796875 24.90625 53 20.796875 53 
C 11.703125 53 5.09375 46.203125 5.09375 38.4375 
C 5.09375 32.859375 8.296875 29.578125 9.5 28.375 
C 12.5 25.390625 14.5 25 23.703125 22.90625 
C 29.09375 21.609375 30.09375 21.40625 32.40625 19.3125 
C 32.90625 18.921875 35.59375 16.234375 35.59375 11.84375 
C 35.59375 6.875 31.703125 1.5 24.796875 1.5 
C 22.203125 1.5 16.796875 1.890625 12.5 5.375 
C 8 8.859375 7.703125 13.75 7.59375 16.4375 
C 7.5 17.234375 6.703125 17.328125 6.40625 17.328125 
C 5.09375 17.328125 5.09375 16.625 5.09375 14.84375 
L 5.09375 1.390625 
C 5.09375 -0.203125 5.09375 -1 6.09375 -1 
C 6.703125 -1 6.796875 -0.90625 8.296875 1.296875 
C 8.796875 1.796875 9.796875 3.28125 10.203125 3.875 
C 13.09375 1.296875 18.296875 -1 24.796875 -1 
C 34.5 -1 40.703125 6.671875 40.703125 14.546875 
C 40.703125 20.8125 36.796875 24.796875 36.796875 24.890625 
C 33.09375 28.6875 31.5 28.984375 23 30.96875 
C 20.90625 31.46875 17.40625 32.265625 16.796875 32.46875 
C 11.796875 34.453125 10.203125 38.34375 10.203125 41.328125 
C 10.203125 45.90625 14.203125 50.796875 20.90625 50.796875 
C 33.59375 50.796875 35.40625 39.140625 35.796875 35.953125 
C 36 35.25 36 34.65625 37.09375 34.65625 
C 38.40625 34.65625 38.40625 35.15625 38.40625 37.046875 
z
" id="CMCSC10-115"/>
      </defs>
      <use transform="scale(0.996264)" xlink:href="#CMSS17-72"/>
      <use transform="translate(66.061519 0)scale(0.996264)" xlink:href="#CMSS17-97"/>
      <use transform="translate(110.98344 0)scale(0.996264)" xlink:href="#CMSS17-98"/>
      <use transform="translate(159.188383 0)scale(0.996264)" xlink:href="#CMSS17-105"/>
      <use transform="translate(181.369106 0)scale(0.996264)" xlink:href="#CMSS17-116"/>
      <use transform="translate(215.200673 0)scale(0.996264)" xlink:href="#CMSS17-97"/>
      <use transform="translate(260.122593 0)scale(0.996264)" xlink:href="#CMSS17-116"/>
      <use transform="translate(325.183273 0)scale(0.996264)" xlink:href="#CMCSC10-83"/>
      <use transform="translate(386.065453 0)scale(0.996264)" xlink:href="#CMCSC10-117"/>
      <use transform="translate(447.169489 0)scale(0.996264)" xlink:href="#CMCSC10-99"/>
      <use transform="translate(506.059476 0)scale(0.996264)" xlink:href="#CMCSC10-99"/>
      <use transform="translate(564.949463 0)scale(0.996264)" xlink:href="#CMCSC10-101"/>
      <use transform="translate(620.518621 0)scale(0.996264)" xlink:href="#CMCSC10-115"/>
      <use transform="translate(666.125199 0)scale(0.996264)" xlink:href="#CMCSC10-115"/>
     </g>
    </g>
   </g>
   <g id="matplotlib.axis_4">
    <g id="ytick_8">
     <g id="line2d_39">
      <path clip-path="url(#p25c1dc5b59)" d="M 385.121739 236.52 
L 615.6 236.52 
" style="fill:none;stroke:#b0b0b0;stroke-linecap:square;stroke-width:0.8;"/>
     </g>
     <g id="line2d_40">
      <g>
       <use style="stroke:#000000;stroke-width:0.8;" x="385.121739" xlink:href="#mb93b548b8c" y="236.52"/>
      </g>
     </g>
     <g id="text_23">
      <!-- $\mathdefault{0.140}$ -->
      <g transform="translate(355.42899 239.979249)scale(0.1 -0.1)">
       <use transform="scale(0.996264)" xlink:href="#CMR17-48"/>
       <use transform="translate(45.690477 0)scale(0.996264)" xlink:href="#CMMI12-58"/>
       <use transform="translate(72.787654 0)scale(0.996264)" xlink:href="#CMR17-49"/>
       <use transform="translate(118.478131 0)scale(0.996264)" xlink:href="#CMR17-52"/>
       <use transform="translate(164.168608 0)scale(0.996264)" xlink:href="#CMR17-48"/>
      </g>
     </g>
    </g>
    <g id="ytick_9">
     <g id="line2d_41">
      <path clip-path="url(#p25c1dc5b59)" d="M 385.121739 196.992 
L 615.6 196.992 
" style="fill:none;stroke:#b0b0b0;stroke-linecap:square;stroke-width:0.8;"/>
     </g>
     <g id="line2d_42">
      <g>
       <use style="stroke:#000000;stroke-width:0.8;" x="385.121739" xlink:href="#mb93b548b8c" y="196.992"/>
      </g>
     </g>
     <g id="text_24">
      <!-- $\mathdefault{0.145}$ -->
      <g transform="translate(355.42899 200.451249)scale(0.1 -0.1)">
       <use transform="scale(0.996264)" xlink:href="#CMR17-48"/>
       <use transform="translate(45.690477 0)scale(0.996264)" xlink:href="#CMMI12-58"/>
       <use transform="translate(72.787654 0)scale(0.996264)" xlink:href="#CMR17-49"/>
       <use transform="translate(118.478131 0)scale(0.996264)" xlink:href="#CMR17-52"/>
       <use transform="translate(164.168608 0)scale(0.996264)" xlink:href="#CMR17-53"/>
      </g>
     </g>
    </g>
    <g id="ytick_10">
     <g id="line2d_43">
      <path clip-path="url(#p25c1dc5b59)" d="M 385.121739 157.464 
L 615.6 157.464 
" style="fill:none;stroke:#b0b0b0;stroke-linecap:square;stroke-width:0.8;"/>
     </g>
     <g id="line2d_44">
      <g>
       <use style="stroke:#000000;stroke-width:0.8;" x="385.121739" xlink:href="#mb93b548b8c" y="157.464"/>
      </g>
     </g>
     <g id="text_25">
      <!-- $\mathdefault{0.150}$ -->
      <g transform="translate(355.42899 160.923249)scale(0.1 -0.1)">
       <use transform="scale(0.996264)" xlink:href="#CMR17-48"/>
       <use transform="translate(45.690477 0)scale(0.996264)" xlink:href="#CMMI12-58"/>
       <use transform="translate(72.787654 0)scale(0.996264)" xlink:href="#CMR17-49"/>
       <use transform="translate(118.478131 0)scale(0.996264)" xlink:href="#CMR17-53"/>
       <use transform="translate(164.168608 0)scale(0.996264)" xlink:href="#CMR17-48"/>
      </g>
     </g>
    </g>
    <g id="ytick_11">
     <g id="line2d_45">
      <path clip-path="url(#p25c1dc5b59)" d="M 385.121739 117.936 
L 615.6 117.936 
" style="fill:none;stroke:#b0b0b0;stroke-linecap:square;stroke-width:0.8;"/>
     </g>
     <g id="line2d_46">
      <g>
       <use style="stroke:#000000;stroke-width:0.8;" x="385.121739" xlink:href="#mb93b548b8c" y="117.936"/>
      </g>
     </g>
     <g id="text_26">
      <!-- $\mathdefault{0.155}$ -->
      <g transform="translate(355.42899 121.395249)scale(0.1 -0.1)">
       <use transform="scale(0.996264)" xlink:href="#CMR17-48"/>
       <use transform="translate(45.690477 0)scale(0.996264)" xlink:href="#CMMI12-58"/>
       <use transform="translate(72.787654 0)scale(0.996264)" xlink:href="#CMR17-49"/>
       <use transform="translate(118.478131 0)scale(0.996264)" xlink:href="#CMR17-53"/>
       <use transform="translate(164.168608 0)scale(0.996264)" xlink:href="#CMR17-53"/>
      </g>
     </g>
    </g>
    <g id="ytick_12">
     <g id="line2d_47">
      <path clip-path="url(#p25c1dc5b59)" d="M 385.121739 78.408 
L 615.6 78.408 
" style="fill:none;stroke:#b0b0b0;stroke-linecap:square;stroke-width:0.8;"/>
     </g>
     <g id="line2d_48">
      <g>
       <use style="stroke:#000000;stroke-width:0.8;" x="385.121739" xlink:href="#mb93b548b8c" y="78.408"/>
      </g>
     </g>
     <g id="text_27">
      <!-- $\mathdefault{0.160}$ -->
      <g transform="translate(355.42899 81.867249)scale(0.1 -0.1)">
       <use transform="scale(0.996264)" xlink:href="#CMR17-48"/>
       <use transform="translate(45.690477 0)scale(0.996264)" xlink:href="#CMMI12-58"/>
       <use transform="translate(72.787654 0)scale(0.996264)" xlink:href="#CMR17-49"/>
       <use transform="translate(118.478131 0)scale(0.996264)" xlink:href="#CMR17-54"/>
       <use transform="translate(164.168608 0)scale(0.996264)" xlink:href="#CMR17-48"/>
      </g>
     </g>
    </g>
    <g id="ytick_13">
     <g id="line2d_49">
      <path clip-path="url(#p25c1dc5b59)" d="M 385.121739 38.88 
L 615.6 38.88 
" style="fill:none;stroke:#b0b0b0;stroke-linecap:square;stroke-width:0.8;"/>
     </g>
     <g id="line2d_50">
      <g>
       <use style="stroke:#000000;stroke-width:0.8;" x="385.121739" xlink:href="#mb93b548b8c" y="38.88"/>
      </g>
     </g>
     <g id="text_28">
      <!-- $\mathdefault{0.165}$ -->
      <g transform="translate(355.42899 42.339249)scale(0.1 -0.1)">
       <use transform="scale(0.996264)" xlink:href="#CMR17-48"/>
       <use transform="translate(45.690477 0)scale(0.996264)" xlink:href="#CMMI12-58"/>
       <use transform="translate(72.787654 0)scale(0.996264)" xlink:href="#CMR17-49"/>
       <use transform="translate(118.478131 0)scale(0.996264)" xlink:href="#CMR17-54"/>
       <use transform="translate(164.168608 0)scale(0.996264)" xlink:href="#CMR17-53"/>
      </g>
     </g>
    </g>
    <g id="text_29">
     <!-- RoboTHOR \textsc{Success} -->
     <g transform="translate(349.491811 183.400799)rotate(-90)scale(0.1 -0.1)">
      <use transform="scale(0.996264)" xlink:href="#CMSS17-82"/>
      <use transform="translate(60.416155 0)scale(0.996264)" xlink:href="#CMSS17-111"/>
      <use transform="translate(107.259778 0)scale(0.996264)" xlink:href="#CMSS17-98"/>
      <use transform="translate(158.06716 0)scale(0.996264)" xlink:href="#CMSS17-111"/>
      <use transform="translate(204.910784 0)scale(0.996264)" xlink:href="#CMSS17-84"/>
      <use transform="translate(268.730238 0)scale(0.996264)" xlink:href="#CMSS17-72"/>
      <use transform="translate(334.791757 0)scale(0.996264)" xlink:href="#CMSS17-79"/>
      <use transform="translate(403.816012 0)scale(0.996264)" xlink:href="#CMSS17-82"/>
      <use transform="translate(495.46128 0)scale(0.996264)" xlink:href="#CMCSC10-83"/>
      <use transform="translate(556.343461 0)scale(0.996264)" xlink:href="#CMCSC10-117"/>
      <use transform="translate(617.447496 0)scale(0.996264)" xlink:href="#CMCSC10-99"/>
      <use transform="translate(676.337483 0)scale(0.996264)" xlink:href="#CMCSC10-99"/>
      <use transform="translate(735.22747 0)scale(0.996264)" xlink:href="#CMCSC10-101"/>
      <use transform="translate(790.796628 0)scale(0.996264)" xlink:href="#CMCSC10-115"/>
      <use transform="translate(836.403207 0)scale(0.996264)" xlink:href="#CMCSC10-115"/>
     </g>
    </g>
   </g>
   <g id="patch_8">
    <path d="M 385.121739 236.52 
L 385.121739 38.88 
" style="fill:none;stroke:#000000;stroke-linecap:square;stroke-linejoin:miter;stroke-width:0.8;"/>
   </g>
   <g id="patch_9">
    <path d="M 615.6 236.52 
L 615.6 38.88 
" style="fill:none;stroke:#000000;stroke-linecap:square;stroke-linejoin:miter;stroke-width:0.8;"/>
   </g>
   <g id="patch_10">
    <path d="M 385.121739 236.52 
L 615.6 236.52 
" style="fill:none;stroke:#000000;stroke-linecap:square;stroke-linejoin:miter;stroke-width:0.8;"/>
   </g>
   <g id="patch_11">
    <path d="M 385.121739 38.88 
L 615.6 38.88 
" style="fill:none;stroke:#000000;stroke-linecap:square;stroke-linejoin:miter;stroke-width:0.8;"/>
   </g>
   <g id="legend_1">
    <g id="patch_12">
     <path d="M 57.999895 310.576 
L 650.086087 310.576 
Q 652.086087 310.576 652.086087 308.576 
L 652.086087 280.362259 
Q 652.086087 278.362259 650.086087 278.362259 
L 57.999895 278.362259 
Q 55.999895 278.362259 55.999895 280.362259 
L 55.999895 308.576 
Q 55.999895 310.576 57.999895 310.576 
z
" style="fill:#ffffff;opacity:0.8;stroke:#cccccc;stroke-linejoin:miter;"/>
    </g>
    <g id="PathCollection_9">
     <g>
      <use style="fill:#ff7f0e;stroke:#000000;" x="69.999895" xlink:href="#mc1a2ab83c4" y="287.335697"/>
     </g>
    </g>
    <g id="text_30">
     <!-- FBE Ens. Grad.-based -->
     <g transform="translate(87.999895 289.960697)scale(0.1 -0.1)">
      <defs>
       <path d="M 45.59375 31 
L 45.59375 37.09375 
L 17.203125 37.09375 
L 17.203125 62.390625 
L 29.40625 62.390625 
C 30.59375 62.390625 31.796875 62.296875 33 62.296875 
L 49.5 62.296875 
L 49.5 68.796875 
L 8.796875 68.796875 
L 8.796875 0 
L 17.203125 0 
L 17.203125 31 
z
" id="CMSS17-70"/>
       <path d="M 8.90625 69 
L 8.90625 0 
L 33.796875 0 
C 47.40625 0 57.296875 8.984375 57.296875 18.75 
C 57.296875 26.3125 50.796875 33.984375 39.09375 36.1875 
C 52.09375 39.984375 54.703125 47.484375 54.703125 51.734375 
C 54.703125 60.625 44.90625 69 31.203125 69 
z
M 17 39 
L 17 63.390625 
L 28.5 63.390625 
C 38.796875 63.390625 46.90625 58.15625 46.90625 51.640625 
C 46.90625 45.703125 40.5 39 27.59375 39 
z
M 17 5.59375 
L 17 32.890625 
L 30.296875 32.890625 
C 41.09375 32.890625 49.40625 26.21875 49.40625 18.84375 
C 49.40625 12.0625 42.09375 5.59375 31 5.59375 
z
" id="CMSS17-66"/>
       <path d="M 30.59375 6.796875 
C 22.59375 6.796875 19 6.796875 17.203125 6.6875 
L 17.203125 32.890625 
L 48.203125 32.890625 
L 48.203125 39 
L 17.203125 39 
L 17.203125 62.390625 
L 30.09375 62.390625 
C 31.296875 62.390625 32.5 62.296875 33.703125 62.296875 
L 50.796875 62.296875 
L 50.796875 68.796875 
L 8.796875 68.796875 
L 8.796875 0 
L 52.09375 0 
L 52.09375 6.890625 
z
" id="CMSS17-69"/>
       <path d="M 40.90625 29.34375 
C 40.90625 35.671875 39.40625 44 28.09375 44 
C 21.703125 44 17.5 40.6875 14.703125 37.28125 
L 14.703125 43.484375 
L 7.40625 43.484375 
L 7.40625 0 
L 15 0 
L 15 24.3125 
C 15 30.65625 17.40625 37.890625 24.203125 37.890625 
C 33 37.890625 33.296875 31.953125 33.296875 28.53125 
L 33.296875 0 
L 40.90625 0 
z
" id="CMSS17-110"/>
       <path d="M 32.203125 40.984375 
C 26.296875 43.796875 21.703125 44 18.703125 44 
C 11.59375 44 3.09375 41.484375 3.09375 31.390625 
C 3.09375 21.296875 14.09375 19.09375 17.09375 18.484375 
C 21.703125 17.59375 26.796875 16.59375 26.796875 11.59375 
C 26.796875 5.296875 19.59375 5.296875 18.296875 5.296875 
C 14.296875 5.296875 8.796875 6.390625 3.796875 9.984375 
L 2.59375 3.296875 
C 8.296875 0 13.796875 -1 18.40625 -1 
C 30.703125 -1 33.796875 6.5 33.796875 12.1875 
C 33.796875 17.09375 31 20.390625 29.09375 21.890625 
C 25.796875 24.484375 24.59375 24.796875 16.40625 26.484375 
C 15 26.6875 10.09375 27.796875 10.09375 32.296875 
C 10.09375 37.984375 16.40625 37.984375 17.796875 37.984375 
C 24.296875 37.984375 28.296875 35.984375 31 34.484375 
z
" id="CMSS17-115"/>
       <path d="M 17 8 
L 9 8 
L 9 0 
L 17 0 
z
" id="CMSS17-46"/>
       <path d="M 56.40625 29.1875 
L 36.5 29.1875 
L 36.5 23 
L 48.796875 23 
L 48.796875 7.390625 
C 44.90625 6.296875 40.90625 5.5 36.90625 5.5 
C 22.90625 5.5 14.59375 20.484375 14.59375 34.6875 
C 14.59375 48.796875 23.296875 63.59375 36.90625 63.59375 
C 44.59375 63.59375 48.90625 61.1875 54.203125 57.1875 
L 55.5 65.1875 
C 48.90625 68.59375 44.796875 70 37.296875 70 
C 17.90625 70 6.203125 52.390625 6.203125 34.390625 
C 6.203125 17.1875 18 -1 36.703125 -1 
C 43.703125 -1 50.203125 0.796875 56.40625 3.890625 
z
" id="CMSS17-71"/>
       <path d="M 14.90625 21.390625 
C 14.90625 30.84375 21.796875 37.171875 30.59375 37.375 
L 30.59375 44 
C 24.203125 43.890625 18.203125 40.6875 14.59375 35.46875 
L 14.59375 43.484375 
L 7.5 43.484375 
L 7.5 0 
L 14.90625 0 
z
" id="CMSS17-114"/>
       <path d="M 40.796875 69 
L 33.40625 69 
L 33.40625 38.984375 
C 30.296875 41.59375 25.203125 44 19.59375 44 
C 10.5 44 3.296875 34.046875 3.296875 21.484375 
C 3.296875 8.9375 10.40625 -1 19.296875 -1 
C 26.203125 -1 30.796875 2.6875 33.203125 4.796875 
L 33.203125 -0.203125 
L 40.796875 -0.203125 
z
M 33.203125 13.296875 
C 33.203125 11.875 33.203125 10.359375 30.09375 7.625 
C 28.09375 5.90625 25.703125 5.09375 23.40625 5.09375 
C 18 5.09375 10.90625 9.140625 10.90625 21.390625 
C 10.90625 34.140625 18.90625 37.890625 24.40625 37.890625 
C 28.09375 37.890625 31.09375 36.0625 33.203125 33.03125 
z
" id="CMSS17-100"/>
       <path d="M 26 19 
L 26 24.796875 
L 1 24.796875 
L 1 19 
z
" id="CMSS17-45"/>
       <path d="M 39.09375 21.484375 
C 39.09375 24.796875 38.90625 31.265625 35.703125 36.671875 
C 32.203125 42.390625 26.5 44 22.203125 44 
C 11.796875 44 3 34.125 3 21.296875 
C 3 9.046875 12.09375 -1 23.59375 -1 
C 28.09375 -1 33.59375 0.296875 38.59375 3.890625 
C 38.59375 4.296875 38.40625 6.46875 38.296875 6.578125 
C 38.296875 6.765625 38 9.828125 38 10.234375 
C 33.203125 6.375 27.703125 5.09375 23.703125 5.09375 
C 17.296875 5.09375 10.40625 10.421875 10.09375 21.484375 
z
M 10.90625 27 
C 12.203125 32.59375 16.59375 37.890625 22.203125 37.890625 
C 23.703125 37.890625 30.703125 37.6875 32.5 27 
z
" id="CMSS17-101"/>
      </defs>
      <use transform="scale(0.996264)" xlink:href="#CMSS17-70"/>
      <use transform="translate(53.289559 0)scale(0.996264)" xlink:href="#CMSS17-66"/>
      <use transform="translate(115.6276 0)scale(0.996264)" xlink:href="#CMSS17-69"/>
      <use transform="translate(202.748725 0)scale(0.996264)" xlink:href="#CMSS17-69"/>
      <use transform="translate(258.640739 0)scale(0.996264)" xlink:href="#CMSS17-110"/>
      <use transform="translate(306.845682 0)scale(0.996264)" xlink:href="#CMSS17-115"/>
      <use transform="translate(342.759224 0)scale(0.996264)" xlink:href="#CMSS17-46"/>
      <use transform="translate(410.422236 0)scale(0.996264)" xlink:href="#CMSS17-71"/>
      <use transform="translate(472.880461 0)scale(0.996264)" xlink:href="#CMSS17-114"/>
      <use transform="translate(504.790234 0)scale(0.996264)" xlink:href="#CMSS17-97"/>
      <use transform="translate(549.712154 0)scale(0.996264)" xlink:href="#CMSS17-100"/>
      <use transform="translate(597.917097 0)scale(0.996264)" xlink:href="#CMSS17-46"/>
      <use transform="translate(623.941302 0)scale(0.996264)" xlink:href="#CMSS17-45"/>
      <use transform="translate(655.170415 0)scale(0.996264)" xlink:href="#CMSS17-98"/>
      <use transform="translate(703.375358 0)scale(0.996264)" xlink:href="#CMSS17-97"/>
      <use transform="translate(748.297279 0)scale(0.996264)" xlink:href="#CMSS17-115"/>
      <use transform="translate(784.210821 0)scale(0.996264)" xlink:href="#CMSS17-101"/>
      <use transform="translate(825.849643 0)scale(0.996264)" xlink:href="#CMSS17-100"/>
     </g>
    </g>
    <g id="PathCollection_10">
     <g>
      <use style="fill:#f4a460;stroke:#000000;" x="69.999895" xlink:href="#m4c72908a1d" y="302.013822"/>
     </g>
    </g>
    <g id="text_31">
     <!-- FBE VG Grad.-based -->
     <g transform="translate(87.999895 304.638822)scale(0.1 -0.1)">
      <defs>
       <path d="M 61.09375 69 
L 53.296875 69 
L 36 21.265625 
C 35.5 19.875 32.40625 10.734375 31.796875 7.5625 
L 31.703125 7.5625 
C 30.90625 11.328125 27.703125 20.171875 26 25.046875 
L 14.40625 57.34375 
L 10.09375 69 
L 1.296875 69 
L 26.796875 0 
L 35.59375 0 
z
" id="CMSS17-86"/>
      </defs>
      <use transform="scale(0.996264)" xlink:href="#CMSS17-70"/>
      <use transform="translate(53.289559 0)scale(0.996264)" xlink:href="#CMSS17-66"/>
      <use transform="translate(115.6276 0)scale(0.996264)" xlink:href="#CMSS17-69"/>
      <use transform="translate(202.748725 0)scale(0.996264)" xlink:href="#CMSS17-86"/>
      <use transform="translate(262.364126 0)scale(0.996264)" xlink:href="#CMSS17-71"/>
      <use transform="translate(356.051465 0)scale(0.996264)" xlink:href="#CMSS17-71"/>
      <use transform="translate(418.50969 0)scale(0.996264)" xlink:href="#CMSS17-114"/>
      <use transform="translate(450.419463 0)scale(0.996264)" xlink:href="#CMSS17-97"/>
      <use transform="translate(495.341383 0)scale(0.996264)" xlink:href="#CMSS17-100"/>
      <use transform="translate(543.546327 0)scale(0.996264)" xlink:href="#CMSS17-46"/>
      <use transform="translate(569.570531 0)scale(0.996264)" xlink:href="#CMSS17-45"/>
      <use transform="translate(600.799644 0)scale(0.996264)" xlink:href="#CMSS17-98"/>
      <use transform="translate(649.004587 0)scale(0.996264)" xlink:href="#CMSS17-97"/>
      <use transform="translate(693.926508 0)scale(0.996264)" xlink:href="#CMSS17-115"/>
      <use transform="translate(729.84005 0)scale(0.996264)" xlink:href="#CMSS17-101"/>
      <use transform="translate(771.478872 0)scale(0.996264)" xlink:href="#CMSS17-100"/>
     </g>
    </g>
    <g id="PathCollection_11">
     <g>
      <use style="fill:#ffd700;stroke:#000000;" x="211.095383" xlink:href="#mb147502c2e" y="287.335697"/>
     </g>
    </g>
    <g id="text_32">
     <!-- FBE Ens. $k$-Patch -->
     <g transform="translate(229.095383 289.960697)scale(0.1 -0.1)">
      <defs>
       <path d="M 28.09375 66.484375 
C 28.203125 66.890625 28.40625 67.484375 28.40625 67.984375 
C 28.40625 69 27.40625 69 27.203125 69 
C 27.09375 69 23.5 68.6875 21.703125 68.484375 
C 20 68.390625 18.5 68.1875 16.703125 68.09375 
C 14.296875 67.890625 13.59375 67.796875 13.59375 65.984375 
C 13.59375 64.984375 14.59375 64.984375 15.59375 64.984375 
C 20.703125 64.984375 20.703125 64.109375 20.703125 63.125 
C 20.703125 62.71875 20.703125 62.53125 20.203125 60.75 
L 5.90625 3.90625 
C 5.5 2.390625 5.5 2.203125 5.5 1.59375 
C 5.5 -0.609375 7.203125 -1 8.203125 -1 
C 11 -1 11.59375 1.1875 12.40625 4.296875 
L 17.09375 23.0625 
C 24.296875 22.265625 28.59375 19.25 28.59375 14.4375 
C 28.59375 13.828125 28.59375 13.4375 28.296875 11.921875 
C 27.90625 10.421875 27.90625 9.21875 27.90625 8.71875 
C 27.90625 2.890625 31.703125 -1 36.796875 -1 
C 41.40625 -1 43.796875 3.203125 44.59375 4.609375 
C 46.703125 8.3125 48 13.9375 48 14.328125 
C 48 14.828125 47.59375 15.234375 47 15.234375 
C 46.09375 15.234375 46 14.828125 45.59375 13.234375 
C 44.203125 8.015625 42.09375 1 37 1 
C 35 1 33.703125 2 33.703125 5.8125 
C 33.703125 7.71875 34.09375 9.921875 34.5 11.421875 
C 34.90625 13.234375 34.90625 13.328125 34.90625 14.53125 
C 34.90625 20.453125 29.59375 23.765625 20.40625 24.96875 
C 24 27.171875 27.59375 31.078125 29 32.59375 
C 34.703125 38.984375 38.59375 41.984375 43.203125 41.984375 
C 45.5 41.984375 46.09375 41.484375 46.796875 41 
C 43.09375 40.59375 41.703125 37.984375 41.703125 35.984375 
C 41.703125 33.59375 43.59375 32.796875 45 32.796875 
C 47.703125 32.796875 50.09375 35.09375 50.09375 38.296875 
C 50.09375 41.15625 47.796875 44 43.296875 44 
C 37.796875 44 33.296875 40.296875 26.203125 32.296875 
C 25.203125 31.078125 21.5 27.28125 17.796875 25.875 
z
" id="CMMI12-107"/>
       <path d="M 32.90625 29 
C 44.90625 29 54.703125 38.234375 54.703125 49.046875 
C 54.703125 59.65625 45.296875 69 32.296875 69 
L 8.90625 69 
L 8.90625 0 
L 17.296875 0 
L 17.296875 29 
z
M 30.09375 63.390625 
C 41.703125 63.390625 46.796875 56.21875 46.796875 49.046875 
C 46.796875 42.359375 42.09375 34.796875 30.09375 34.796875 
L 17.09375 34.796875 
L 17.09375 63.390625 
z
" id="CMSS17-80"/>
       <path d="M 38.5 39.6875 
C 38.5 40.390625 33.90625 42.390625 32.703125 42.796875 
C 29.40625 44 25.203125 44 24.09375 44 
C 11.09375 44 3.296875 32.6875 3.296875 21.296875 
C 3.296875 9.296875 12 -1 23.703125 -1 
C 30.40625 -1 35.203125 1.1875 39.09375 3.796875 
L 38.5 10.390625 
C 34.203125 7.09375 29.203125 5.296875 23.796875 5.296875 
C 16 5.296875 10.90625 12.09375 10.90625 21.390625 
C 10.90625 28.59375 14.203125 37.6875 24.203125 37.6875 
C 29.703125 37.6875 32.796875 36.59375 37.40625 33.484375 
z
" id="CMSS17-99"/>
       <path d="M 40.90625 29.34375 
C 40.90625 35.671875 39.40625 44 28.09375 44 
C 21.796875 44 17.703125 40.890625 14.796875 37.484375 
L 14.796875 69 
L 7.40625 69 
L 7.40625 0 
L 15 0 
L 15 24.3125 
C 15 30.65625 17.40625 37.890625 24.203125 37.890625 
C 33 37.890625 33.296875 31.953125 33.296875 28.53125 
L 33.296875 0 
L 40.90625 0 
z
" id="CMSS17-104"/>
      </defs>
      <use transform="scale(0.996264)" xlink:href="#CMSS17-70"/>
      <use transform="translate(53.289559 0)scale(0.996264)" xlink:href="#CMSS17-66"/>
      <use transform="translate(115.6276 0)scale(0.996264)" xlink:href="#CMSS17-69"/>
      <use transform="translate(202.748725 0)scale(0.996264)" xlink:href="#CMSS17-69"/>
      <use transform="translate(258.640739 0)scale(0.996264)" xlink:href="#CMSS17-110"/>
      <use transform="translate(306.845682 0)scale(0.996264)" xlink:href="#CMSS17-115"/>
      <use transform="translate(342.759224 0)scale(0.996264)" xlink:href="#CMSS17-46"/>
      <use transform="translate(410.422236 0)scale(0.996264)" xlink:href="#CMMI12-107"/>
      <use transform="translate(464.501436 0)scale(0.996264)" xlink:href="#CMSS17-45"/>
      <use transform="translate(495.730549 0)scale(0.996264)" xlink:href="#CMSS17-80"/>
      <use transform="translate(552.863681 0)scale(0.996264)" xlink:href="#CMSS17-97"/>
      <use transform="translate(597.785602 0)scale(0.996264)" xlink:href="#CMSS17-116"/>
      <use transform="translate(631.617169 0)scale(0.996264)" xlink:href="#CMSS17-99"/>
      <use transform="translate(673.255991 0)scale(0.996264)" xlink:href="#CMSS17-104"/>
     </g>
    </g>
    <g id="PathCollection_12">
     <g>
      <use style="fill:#ffe4b5;stroke:#000000;" x="211.095383" xlink:href="#mc9dbc19def" y="302.013822"/>
     </g>
    </g>
    <g id="text_33">
     <!-- FBE VG $k$-Patch -->
     <g transform="translate(229.095383 304.638822)scale(0.1 -0.1)">
      <use transform="scale(0.996264)" xlink:href="#CMSS17-70"/>
      <use transform="translate(53.289559 0)scale(0.996264)" xlink:href="#CMSS17-66"/>
      <use transform="translate(115.6276 0)scale(0.996264)" xlink:href="#CMSS17-69"/>
      <use transform="translate(202.748725 0)scale(0.996264)" xlink:href="#CMSS17-86"/>
      <use transform="translate(262.364126 0)scale(0.996264)" xlink:href="#CMSS17-71"/>
      <use transform="translate(356.051465 0)scale(0.996264)" xlink:href="#CMMI12-107"/>
      <use transform="translate(410.130665 0)scale(0.996264)" xlink:href="#CMSS17-45"/>
      <use transform="translate(441.359778 0)scale(0.996264)" xlink:href="#CMSS17-80"/>
      <use transform="translate(498.49291 0)scale(0.996264)" xlink:href="#CMSS17-97"/>
      <use transform="translate(543.414831 0)scale(0.996264)" xlink:href="#CMSS17-116"/>
      <use transform="translate(577.246398 0)scale(0.996264)" xlink:href="#CMSS17-99"/>
      <use transform="translate(618.88522 0)scale(0.996264)" xlink:href="#CMSS17-104"/>
     </g>
    </g>
    <g id="PathCollection_13">
     <g>
      <use style="fill:#1f77b4;stroke:#000000;" x="335.662519" xlink:href="#m8ba3a83ecb" y="287.335697"/>
     </g>
    </g>
    <g id="text_34">
     <!-- Hab.-Learn Ens. Grad.-based -->
     <g transform="translate(353.662519 289.960697)scale(0.1 -0.1)">
      <defs>
       <path d="M 26.09375 6.5 
C 24.90625 6.5 23.703125 6.390625 22.5 6.390625 
L 17.203125 6.390625 
L 17.203125 69 
L 8.796875 69 
L 8.796875 0 
L 46.90625 0 
L 46.90625 6.5 
z
" id="CMSS17-76"/>
      </defs>
      <use transform="scale(0.996264)" xlink:href="#CMSS17-72"/>
      <use transform="translate(66.061519 0)scale(0.996264)" xlink:href="#CMSS17-97"/>
      <use transform="translate(110.98344 0)scale(0.996264)" xlink:href="#CMSS17-98"/>
      <use transform="translate(159.188383 0)scale(0.996264)" xlink:href="#CMSS17-46"/>
      <use transform="translate(185.212588 0)scale(0.996264)" xlink:href="#CMSS17-45"/>
      <use transform="translate(216.441701 0)scale(0.996264)" xlink:href="#CMSS17-76"/>
      <use transform="translate(267.128806 0)scale(0.996264)" xlink:href="#CMSS17-101"/>
      <use transform="translate(308.767628 0)scale(0.996264)" xlink:href="#CMSS17-97"/>
      <use transform="translate(351.087095 0)scale(0.996264)" xlink:href="#CMSS17-114"/>
      <use transform="translate(382.996867 0)scale(0.996264)" xlink:href="#CMSS17-110"/>
      <use transform="translate(462.430923 0)scale(0.996264)" xlink:href="#CMSS17-69"/>
      <use transform="translate(518.322936 0)scale(0.996264)" xlink:href="#CMSS17-110"/>
      <use transform="translate(566.527879 0)scale(0.996264)" xlink:href="#CMSS17-115"/>
      <use transform="translate(602.441421 0)scale(0.996264)" xlink:href="#CMSS17-46"/>
      <use transform="translate(670.104433 0)scale(0.996264)" xlink:href="#CMSS17-71"/>
      <use transform="translate(732.562659 0)scale(0.996264)" xlink:href="#CMSS17-114"/>
      <use transform="translate(764.472431 0)scale(0.996264)" xlink:href="#CMSS17-97"/>
      <use transform="translate(809.394352 0)scale(0.996264)" xlink:href="#CMSS17-100"/>
      <use transform="translate(857.599295 0)scale(0.996264)" xlink:href="#CMSS17-46"/>
      <use transform="translate(883.6235 0)scale(0.996264)" xlink:href="#CMSS17-45"/>
      <use transform="translate(914.852613 0)scale(0.996264)" xlink:href="#CMSS17-98"/>
      <use transform="translate(963.057556 0)scale(0.996264)" xlink:href="#CMSS17-97"/>
      <use transform="translate(1007.979476 0)scale(0.996264)" xlink:href="#CMSS17-115"/>
      <use transform="translate(1043.893018 0)scale(0.996264)" xlink:href="#CMSS17-101"/>
      <use transform="translate(1085.53184 0)scale(0.996264)" xlink:href="#CMSS17-100"/>
     </g>
    </g>
    <g id="PathCollection_14">
     <g>
      <use style="fill:#b0c4de;stroke:#000000;" x="335.662519" xlink:href="#m76e8c48fcb" y="302.013822"/>
     </g>
    </g>
    <g id="text_35">
     <!-- Hab.-Learn VG Grad.-based -->
     <g transform="translate(353.662519 304.638822)scale(0.1 -0.1)">
      <use transform="scale(0.996264)" xlink:href="#CMSS17-72"/>
      <use transform="translate(66.061519 0)scale(0.996264)" xlink:href="#CMSS17-97"/>
      <use transform="translate(110.98344 0)scale(0.996264)" xlink:href="#CMSS17-98"/>
      <use transform="translate(159.188383 0)scale(0.996264)" xlink:href="#CMSS17-46"/>
      <use transform="translate(185.212588 0)scale(0.996264)" xlink:href="#CMSS17-45"/>
      <use transform="translate(216.441701 0)scale(0.996264)" xlink:href="#CMSS17-76"/>
      <use transform="translate(267.128806 0)scale(0.996264)" xlink:href="#CMSS17-101"/>
      <use transform="translate(308.767628 0)scale(0.996264)" xlink:href="#CMSS17-97"/>
      <use transform="translate(351.087095 0)scale(0.996264)" xlink:href="#CMSS17-114"/>
      <use transform="translate(382.996867 0)scale(0.996264)" xlink:href="#CMSS17-110"/>
      <use transform="translate(462.430923 0)scale(0.996264)" xlink:href="#CMSS17-86"/>
      <use transform="translate(522.046324 0)scale(0.996264)" xlink:href="#CMSS17-71"/>
      <use transform="translate(615.733662 0)scale(0.996264)" xlink:href="#CMSS17-71"/>
      <use transform="translate(678.191888 0)scale(0.996264)" xlink:href="#CMSS17-114"/>
      <use transform="translate(710.10166 0)scale(0.996264)" xlink:href="#CMSS17-97"/>
      <use transform="translate(755.023581 0)scale(0.996264)" xlink:href="#CMSS17-100"/>
      <use transform="translate(803.228524 0)scale(0.996264)" xlink:href="#CMSS17-46"/>
      <use transform="translate(829.252729 0)scale(0.996264)" xlink:href="#CMSS17-45"/>
      <use transform="translate(860.481842 0)scale(0.996264)" xlink:href="#CMSS17-98"/>
      <use transform="translate(908.686785 0)scale(0.996264)" xlink:href="#CMSS17-97"/>
      <use transform="translate(953.608706 0)scale(0.996264)" xlink:href="#CMSS17-115"/>
      <use transform="translate(989.522248 0)scale(0.996264)" xlink:href="#CMSS17-101"/>
      <use transform="translate(1031.16107 0)scale(0.996264)" xlink:href="#CMSS17-100"/>
     </g>
    </g>
    <g id="PathCollection_15">
     <g>
      <use style="fill:#2ca02c;stroke:#000000;" x="504.459743" xlink:href="#mdd9ea89567" y="287.335697"/>
     </g>
    </g>
    <g id="text_36">
     <!-- Robo.-Learn Ens. Grad.-based -->
     <g transform="translate(522.459743 289.960697)scale(0.1 -0.1)">
      <use transform="scale(0.996264)" xlink:href="#CMSS17-82"/>
      <use transform="translate(60.416155 0)scale(0.996264)" xlink:href="#CMSS17-111"/>
      <use transform="translate(107.259778 0)scale(0.996264)" xlink:href="#CMSS17-98"/>
      <use transform="translate(158.06716 0)scale(0.996264)" xlink:href="#CMSS17-111"/>
      <use transform="translate(204.910784 0)scale(0.996264)" xlink:href="#CMSS17-46"/>
      <use transform="translate(230.934989 0)scale(0.996264)" xlink:href="#CMSS17-45"/>
      <use transform="translate(262.164101 0)scale(0.996264)" xlink:href="#CMSS17-76"/>
      <use transform="translate(312.851207 0)scale(0.996264)" xlink:href="#CMSS17-101"/>
      <use transform="translate(354.490029 0)scale(0.996264)" xlink:href="#CMSS17-97"/>
      <use transform="translate(396.809496 0)scale(0.996264)" xlink:href="#CMSS17-114"/>
      <use transform="translate(428.719268 0)scale(0.996264)" xlink:href="#CMSS17-110"/>
      <use transform="translate(508.153324 0)scale(0.996264)" xlink:href="#CMSS17-69"/>
      <use transform="translate(564.045337 0)scale(0.996264)" xlink:href="#CMSS17-110"/>
      <use transform="translate(612.25028 0)scale(0.996264)" xlink:href="#CMSS17-115"/>
      <use transform="translate(648.163822 0)scale(0.996264)" xlink:href="#CMSS17-46"/>
      <use transform="translate(715.826834 0)scale(0.996264)" xlink:href="#CMSS17-71"/>
      <use transform="translate(778.28506 0)scale(0.996264)" xlink:href="#CMSS17-114"/>
      <use transform="translate(810.194832 0)scale(0.996264)" xlink:href="#CMSS17-97"/>
      <use transform="translate(855.116753 0)scale(0.996264)" xlink:href="#CMSS17-100"/>
      <use transform="translate(903.321696 0)scale(0.996264)" xlink:href="#CMSS17-46"/>
      <use transform="translate(929.345901 0)scale(0.996264)" xlink:href="#CMSS17-45"/>
      <use transform="translate(960.575013 0)scale(0.996264)" xlink:href="#CMSS17-98"/>
      <use transform="translate(1008.779957 0)scale(0.996264)" xlink:href="#CMSS17-97"/>
      <use transform="translate(1053.701877 0)scale(0.996264)" xlink:href="#CMSS17-115"/>
      <use transform="translate(1089.615419 0)scale(0.996264)" xlink:href="#CMSS17-101"/>
      <use transform="translate(1131.254241 0)scale(0.996264)" xlink:href="#CMSS17-100"/>
     </g>
    </g>
    <g id="PathCollection_16">
     <g>
      <use style="fill:#98fb98;stroke:#000000;" x="504.459743" xlink:href="#ma958098673" y="302.013822"/>
     </g>
    </g>
    <g id="text_37">
     <!-- Robo.-Learn VG Grad.-based -->
     <g transform="translate(522.459743 304.638822)scale(0.1 -0.1)">
      <use transform="scale(0.996264)" xlink:href="#CMSS17-82"/>
      <use transform="translate(60.416155 0)scale(0.996264)" xlink:href="#CMSS17-111"/>
      <use transform="translate(107.259778 0)scale(0.996264)" xlink:href="#CMSS17-98"/>
      <use transform="translate(158.06716 0)scale(0.996264)" xlink:href="#CMSS17-111"/>
      <use transform="translate(204.910784 0)scale(0.996264)" xlink:href="#CMSS17-46"/>
      <use transform="translate(230.934989 0)scale(0.996264)" xlink:href="#CMSS17-45"/>
      <use transform="translate(262.164101 0)scale(0.996264)" xlink:href="#CMSS17-76"/>
      <use transform="translate(312.851207 0)scale(0.996264)" xlink:href="#CMSS17-101"/>
      <use transform="translate(354.490029 0)scale(0.996264)" xlink:href="#CMSS17-97"/>
      <use transform="translate(396.809496 0)scale(0.996264)" xlink:href="#CMSS17-114"/>
      <use transform="translate(428.719268 0)scale(0.996264)" xlink:href="#CMSS17-110"/>
      <use transform="translate(508.153324 0)scale(0.996264)" xlink:href="#CMSS17-86"/>
      <use transform="translate(567.768725 0)scale(0.996264)" xlink:href="#CMSS17-71"/>
      <use transform="translate(661.456063 0)scale(0.996264)" xlink:href="#CMSS17-71"/>
      <use transform="translate(723.914289 0)scale(0.996264)" xlink:href="#CMSS17-114"/>
      <use transform="translate(755.824061 0)scale(0.996264)" xlink:href="#CMSS17-97"/>
      <use transform="translate(800.745982 0)scale(0.996264)" xlink:href="#CMSS17-100"/>
      <use transform="translate(848.950925 0)scale(0.996264)" xlink:href="#CMSS17-46"/>
      <use transform="translate(874.97513 0)scale(0.996264)" xlink:href="#CMSS17-45"/>
      <use transform="translate(906.204243 0)scale(0.996264)" xlink:href="#CMSS17-98"/>
      <use transform="translate(954.409186 0)scale(0.996264)" xlink:href="#CMSS17-97"/>
      <use transform="translate(999.331106 0)scale(0.996264)" xlink:href="#CMSS17-115"/>
      <use transform="translate(1035.244648 0)scale(0.996264)" xlink:href="#CMSS17-101"/>
      <use transform="translate(1076.88347 0)scale(0.996264)" xlink:href="#CMSS17-100"/>
     </g>
    </g>
   </g>
   <g id="PathCollection_17">
    <g clip-path="url(#p25c1dc5b59)">
     <use style="fill:#ff7f0e;stroke:#000000;" x="574.113913" xlink:href="#mc1a2ab83c4" y="54.6912"/>
    </g>
   </g>
   <g id="PathCollection_18">
    <g clip-path="url(#p25c1dc5b59)">
     <use style="fill:#f4a460;stroke:#000000;" x="486.532174" xlink:href="#m4c72908a1d" y="70.5024"/>
    </g>
   </g>
   <g id="PathCollection_19">
    <g clip-path="url(#p25c1dc5b59)">
     <use style="fill:#ffd700;stroke:#000000;" x="468.093913" xlink:href="#mb147502c2e" y="125.8416"/>
    </g>
   </g>
   <g id="PathCollection_20">
    <g clip-path="url(#p25c1dc5b59)">
     <use style="fill:#ffe4b5;stroke:#000000;" x="449.655652" xlink:href="#mc9dbc19def" y="173.2752"/>
    </g>
   </g>
   <g id="PathCollection_21">
    <g clip-path="url(#p25c1dc5b59)">
     <use style="fill:#1f77b4;stroke:#000000;" x="592.552174" xlink:href="#m8ba3a83ecb" y="173.2752"/>
    </g>
   </g>
   <g id="PathCollection_22">
    <g clip-path="url(#p25c1dc5b59)">
     <use style="fill:#b0c4de;stroke:#000000;" x="583.333043" xlink:href="#m76e8c48fcb" y="220.7088"/>
    </g>
   </g>
   <g id="PathCollection_23">
    <g clip-path="url(#p25c1dc5b59)">
     <use style="fill:#2ca02c;stroke:#000000;" x="458.874783" xlink:href="#mdd9ea89567" y="181.1808"/>
    </g>
   </g>
   <g id="PathCollection_24">
    <g clip-path="url(#p25c1dc5b59)">
     <use style="fill:#98fb98;stroke:#000000;" x="421.998261" xlink:href="#ma958098673" y="220.7088"/>
    </g>
   </g>
  </g>
 </g>
 <defs>
  <clipPath id="p7523345f81">
   <rect height="197.64" width="230.478261" x="85.5" y="38.88"/>
  </clipPath>
  <clipPath id="p25c1dc5b59">
   <rect height="197.64" width="230.478261" x="385.121739" y="38.88"/>
  </clipPath>
 </defs>
</svg>
